<svg width="21" height="24" viewBox="0 0 21 24" fill="none" xmlns="http://www.w3.org/2000/svg">
<path d="M15.9944 16.2174C12.773 17.5175 9.17795 17.5175 5.95648 16.2174V16.2174C5.84401 16.171 5.74769 16.0921 5.67967 15.9907C5.61164 15.8892 5.57495 15.7698 5.57422 15.6474V8.55237C5.57422 7.10959 6.14328 5.7259 7.1562 4.7057C8.16913 3.68551 9.54296 3.11237 10.9755 3.11237V3.11237C11.6848 3.11237 12.3871 3.25308 13.0424 3.52646C13.6977 3.79985 14.2932 4.20055 14.7947 4.7057C15.2963 5.21086 15.6941 5.81056 15.9655 6.47057C16.237 7.13058 16.3767 7.83797 16.3767 8.55237V15.6474C16.3766 15.7699 16.3402 15.8897 16.2721 15.9912C16.204 16.0928 16.1073 16.1715 15.9944 16.2174Z" fill="#724F3D" stroke="#45413C" stroke-width="0.5" stroke-linecap="round" stroke-linejoin="round"/>
<path opacity="0.15" d="M2.20801 22.6974C2.20801 22.8963 3.09716 23.0871 4.67986 23.2277C6.26256 23.3684 8.40916 23.4474 10.6474 23.4474C12.8857 23.4474 15.0323 23.3684 16.615 23.2277C18.1977 23.0871 19.0869 22.8963 19.0869 22.6974C19.0869 22.4985 18.1977 22.3077 16.615 22.1671C15.0323 22.0264 12.8857 21.9474 10.6474 21.9474C8.40916 21.9474 6.26256 22.0264 4.67986 22.1671C3.09716 22.3077 2.20801 22.4985 2.20801 22.6974V22.6974Z" fill="#45413C"/>
<path d="M10.9748 15.5574C12.539 15.5574 14.0391 16.1832 15.1451 17.2972C16.2511 18.4111 16.8725 19.922 16.8725 21.4974V22.4474H5.07715V21.4974C5.07715 19.922 5.69851 18.4111 6.80454 17.2972C7.91056 16.1832 9.41066 15.5574 10.9748 15.5574V15.5574Z" fill="white"/>
<path d="M10.9748 15.5574C9.41066 15.5574 7.91056 16.1832 6.80454 17.2972C5.69851 18.4111 5.07715 19.922 5.07715 21.4974V22.4474H5.13176C5.32529 21.025 6.02376 19.7213 7.09795 18.7776C8.17215 17.8338 9.54937 17.3138 10.9748 17.3138C12.4003 17.3138 13.7775 17.8338 14.8517 18.7776C15.9259 19.7213 16.6244 21.025 16.8179 22.4474H16.8725V21.4974C16.8725 19.922 16.2511 18.4111 15.1451 17.2972C14.0391 16.1832 12.539 15.5574 10.9748 15.5574Z" fill="#F0F0F0"/>
<path d="M10.9748 15.5574C12.539 15.5574 14.0391 16.1832 15.1451 17.2972C16.2511 18.4111 16.8725 19.922 16.8725 21.4974V22.4474H5.07715V21.4974C5.07715 19.922 5.69851 18.4111 6.80454 17.2972C7.91056 16.1832 9.41066 15.5574 10.9748 15.5574V15.5574Z" stroke="#45413C" stroke-width="0.5" stroke-linecap="round" stroke-linejoin="round"/>
<path d="M8.63672 16.7724C8.63672 17.2418 8.88307 17.692 9.32157 18.024C9.76007 18.3559 10.3548 18.5424 10.9749 18.5424C11.5951 18.5424 12.1898 18.3559 12.6283 18.024C13.0668 17.692 13.3132 17.2418 13.3132 16.7724C13.3132 16.3029 13.0668 15.8527 12.6283 15.5208C12.1898 15.1889 11.5951 15.0024 10.9749 15.0024C10.3548 15.0024 9.76007 15.1889 9.32157 15.5208C8.88307 15.8527 8.63672 16.3029 8.63672 16.7724V16.7724Z" fill="#00DBA8"/>
<path d="M10.9752 15.0024C10.5234 14.972 10.0726 15.0733 9.67642 15.2941C9.28028 15.5148 8.95562 15.8458 8.74121 16.2474C8.95445 16.6504 9.27872 16.9827 9.67503 17.2045C10.0713 17.4262 10.5228 17.5279 10.9752 17.4974C11.4275 17.5279 11.879 17.4262 12.2753 17.2045C12.6716 16.9827 12.9959 16.6504 13.2091 16.2474C12.9947 15.8458 12.6701 15.5148 12.2739 15.2941C11.8778 15.0733 11.4269 14.972 10.9752 15.0024V15.0024Z" fill="#00AD85"/>
<path d="M8.63672 16.7724C8.63672 17.2418 8.88307 17.692 9.32157 18.024C9.76007 18.3559 10.3548 18.5424 10.9749 18.5424C11.5951 18.5424 12.1898 18.3559 12.6283 18.024C13.0668 17.692 13.3132 17.2418 13.3132 16.7724C13.3132 16.3029 13.0668 15.8527 12.6283 15.5208C12.1898 15.1889 11.5951 15.0024 10.9749 15.0024C10.3548 15.0024 9.76007 15.1889 9.32157 15.5208C8.88307 15.8527 8.63672 16.3029 8.63672 16.7724V16.7724Z" stroke="#45413C" stroke-width="0.5" stroke-linecap="round" stroke-linejoin="round"/>
<path d="M10.9748 13.5274C10.8088 13.5274 10.6444 13.5604 10.4911 13.6246C10.3378 13.6887 10.1986 13.7827 10.0814 13.9011C9.96429 14.0196 9.87151 14.1602 9.80843 14.3149C9.74536 14.4695 9.71322 14.6352 9.71388 14.8024V16.2224C9.71388 16.5592 9.84673 16.8823 10.0832 17.1204C10.3197 17.3586 10.6404 17.4924 10.9748 17.4924C11.3093 17.4924 11.63 17.3586 11.8665 17.1204C12.1029 16.8823 12.2358 16.5592 12.2358 16.2224V14.8024C12.2364 14.6352 12.2043 14.4695 12.1412 14.3149C12.0781 14.1602 11.9854 14.0196 11.8682 13.9011C11.7511 13.7827 11.6118 13.6887 11.4585 13.6246C11.3052 13.5604 11.1408 13.5274 10.9748 13.5274V13.5274Z" fill="#FFE500"/>
<path d="M10.9748 13.5274C10.6404 13.5274 10.3197 13.6612 10.0832 13.8994C9.84672 14.1375 9.71387 14.4606 9.71387 14.7974V15.0974C9.71387 15.4342 9.84672 15.7573 10.0832 15.9954C10.3197 16.2336 10.6404 16.3674 10.9748 16.3674C11.3092 16.3674 11.63 16.2336 11.8664 15.9954C12.1029 15.7573 12.2358 15.4342 12.2358 15.0974V14.8024C12.2364 14.6352 12.2043 14.4695 12.1412 14.3149C12.0781 14.1602 11.9854 14.0196 11.8682 13.9011C11.751 13.7827 11.6118 13.6887 11.4585 13.6246C11.3052 13.5604 11.1408 13.5274 10.9748 13.5274V13.5274Z" fill="#EBCB00"/>
<path d="M10.9748 13.5274C10.8088 13.5274 10.6444 13.5604 10.4911 13.6246C10.3378 13.6887 10.1986 13.7827 10.0814 13.9011C9.96429 14.0196 9.87151 14.1602 9.80843 14.3149C9.74536 14.4695 9.71322 14.6352 9.71388 14.8024V16.2224C9.71388 16.5592 9.84673 16.8823 10.0832 17.1204C10.3197 17.3586 10.6404 17.4924 10.9748 17.4924C11.3093 17.4924 11.63 17.3586 11.8665 17.1204C12.1029 16.8823 12.2358 16.5592 12.2358 16.2224V14.8024C12.2364 14.6352 12.2043 14.4695 12.1412 14.3149C12.0781 14.1602 11.9854 14.0196 11.8682 13.9011C11.7511 13.7827 11.6118 13.6887 11.4585 13.6246C11.3052 13.5604 11.1408 13.5274 10.9748 13.5274V13.5274Z" stroke="#45413C" stroke-width="0.5" stroke-linecap="round" stroke-linejoin="round"/>
<path d="M7.5293 22.4474V21.2424" stroke="#45413C" stroke-width="0.5" stroke-linecap="round" stroke-linejoin="round"/>
<path d="M14.4199 22.4474V21.2374" stroke="#45413C" stroke-width="0.5" stroke-linecap="round" stroke-linejoin="round"/>
<path d="M12.0181 18.4874C12.2655 18.8267 12.613 19.0786 13.0109 19.2074C13.6563 19.3874 14.0733 19.1174 14.3513 19.2924C13.9442 18.1624 12.9811 17.5774 12.3656 17.8624C11.75 18.1474 12.0181 18.4874 12.0181 18.4874Z" fill="#00DBA8" stroke="#45413C" stroke-width="0.5" stroke-linecap="round" stroke-linejoin="round"/>
<path d="M11.4712 18.5074C11.2576 18.9548 11.1898 19.4588 11.2776 19.9474C11.4563 20.7124 11.9577 20.9924 11.9379 21.3774C12.8612 20.3274 12.9307 19.0074 12.2854 18.5274C11.64 18.0474 11.4712 18.5074 11.4712 18.5074Z" fill="#00DBA8" stroke="#45413C" stroke-width="0.5" stroke-linecap="round" stroke-linejoin="round"/>
<path d="M10.9746 17.4974C11.1509 17.5866 11.2924 17.7327 11.3767 17.9124C11.4378 18.1048 11.4696 18.3054 11.471 18.5074C11.6157 18.5717 11.7721 18.6049 11.9303 18.6049C12.0884 18.6049 12.2448 18.5717 12.3895 18.5074C12.4915 18.4416 12.5791 18.3553 12.6467 18.254C12.7142 18.1527 12.7604 18.0385 12.7823 17.9184C12.8042 17.7984 12.8013 17.6751 12.7739 17.5562C12.7464 17.4373 12.695 17.3254 12.6228 17.2274C12.2852 16.7874 11.5554 16.6874 10.9746 17.4974Z" fill="#00DBA8" stroke="#45413C" stroke-width="0.5" stroke-linecap="round" stroke-linejoin="round"/>
<path d="M2.65942 22.4474C2.65942 22.4474 -0.641888 18.6574 2.2027 18.2224C5.28557 17.7574 8.65638 22.4474 8.65638 22.4474H2.65942Z" fill="#DEBB7E"/>
<path d="M2.20289 19.6474C4.14892 19.3524 6.19921 21.1074 7.45023 22.4474H8.63672C8.63672 22.4474 5.28577 17.7574 2.18303 18.2224C0.922084 18.4174 0.867475 19.2624 1.19016 20.1524C1.31295 19.9998 1.46699 19.8756 1.64177 19.7885C1.81655 19.7013 2.00795 19.6532 2.20289 19.6474V19.6474Z" fill="#F0D5A8"/>
<path d="M2.65942 22.4474C2.65942 22.4474 -0.641888 18.6574 2.2027 18.2224C5.28557 17.7574 8.65638 22.4474 8.65638 22.4474H2.65942Z" stroke="#45413C" stroke-width="0.5" stroke-linecap="round" stroke-linejoin="round"/>
<path d="M3.27377 19.9805C3.36512 20.0448 3.46213 20.0991 3.55925 20.1402C3.65638 20.1814 3.75172 20.2085 3.83983 20.2202C3.92794 20.2318 4.00709 20.2277 4.07278 20.2081C4.13846 20.1885 4.18938 20.1537 4.22264 20.1058C4.25589 20.058 4.27083 19.9979 4.26659 19.929C4.26236 19.8601 4.23903 19.7838 4.19795 19.7045C4.15687 19.6251 4.09884 19.5442 4.02716 19.4664C3.95549 19.3887 3.87158 19.3155 3.78023 19.2511C3.68888 19.1868 3.59187 19.1325 3.49474 19.0914C3.39762 19.0502 3.30228 19.0231 3.21417 19.0114C3.12606 18.9998 3.0469 19.0039 2.98122 19.0235C2.91554 19.0431 2.86461 19.0779 2.83136 19.1258C2.7981 19.1736 2.78317 19.2337 2.7874 19.3026C2.79164 19.3715 2.81496 19.4478 2.85604 19.5271C2.89712 19.6065 2.95516 19.6874 3.02683 19.7652C3.0985 19.843 3.18241 19.9161 3.27377 19.9805V19.9805Z" fill="#FF6242" stroke="#45413C" stroke-width="0.5" stroke-linecap="round" stroke-linejoin="round"/>
<path d="M5.56771 21.2037C5.7522 21.3337 5.95582 21.4199 6.13377 21.4434C6.31172 21.4669 6.44942 21.4258 6.51658 21.3291C6.58374 21.2324 6.57486 21.088 6.4919 20.9277C6.40893 20.7674 6.25867 20.6044 6.07418 20.4744C5.88968 20.3444 5.68606 20.2582 5.50811 20.2347C5.33017 20.2112 5.19246 20.2523 5.1253 20.349C5.05814 20.4457 5.06702 20.5901 5.14999 20.7504C5.23296 20.9107 5.38321 21.0738 5.56771 21.2037Z" fill="#FFE500" stroke="#45413C" stroke-width="0.5" stroke-linecap="round" stroke-linejoin="round"/>
<path d="M18.441 18.1174L17.3984 17.8574L18.1183 14.3874L19.404 14.7074L18.441 18.1174Z" fill="#DAEDF7" stroke="#45413C" stroke-width="0.5" stroke-linecap="round" stroke-linejoin="round"/>
<path d="M17.3975 17.8547L18.4436 18.1137L17.466 22.1195L16.4198 21.8605L17.3975 17.8547Z" fill="#BF8256" stroke="#45413C" stroke-width="0.5" stroke-linecap="round" stroke-linejoin="round"/>
<path d="M18.1187 14.3874C17.796 13.7674 18.2081 13.0074 18.6797 12.6174C18.9801 12.3856 19.1993 12.0633 19.3052 11.6974C19.5995 11.9035 19.8276 12.1917 19.9616 12.5265C20.0957 12.8614 20.1298 13.2283 20.0598 13.5824C20.0312 13.8035 19.9595 14.0168 19.8487 14.2098C19.738 14.4029 19.5904 14.572 19.4144 14.7074L18.1187 14.3874Z" fill="#FFF5E3" stroke="#45413C" stroke-width="0.5" stroke-linecap="round" stroke-linejoin="round"/>
<path d="M18.2871 13.0524C18.5416 13.1994 18.8158 13.3089 19.1013 13.3774C19.4255 13.4594 19.7608 13.4881 20.0941 13.4624C20.1355 13.1246 20.0848 12.7819 19.9475 12.471C19.8102 12.1601 19.5914 11.8927 19.3147 11.6974C19.2088 12.0633 18.9897 12.3856 18.6892 12.6174C18.534 12.7409 18.3984 12.8876 18.2871 13.0524Z" fill="#FF6242" stroke="#45413C" stroke-width="0.5" stroke-linecap="round" stroke-linejoin="round"/>
<path d="M16.5037 18.0852C16.7004 18.1342 16.8697 18.2599 16.9744 18.4346C17.079 18.6093 17.1105 18.8188 17.0618 19.0169L16.26 22.2809C15.9611 22.2064 15.7039 22.0154 15.5449 21.75C15.3858 21.4845 15.338 21.1662 15.412 20.8652L16.0279 18.3578C16.0529 18.2561 16.1169 18.1687 16.2059 18.1146C16.2949 18.0605 16.4016 18.0443 16.5025 18.0694L16.5037 18.0852Z" fill="#FFE500"/>
<path d="M16.5451 18.0824C16.4936 18.0658 16.4392 18.0603 16.3855 18.0662C16.3318 18.0721 16.2798 18.0892 16.2331 18.1165C16.1863 18.1439 16.1457 18.1807 16.114 18.2248C16.0822 18.2689 16.06 18.3191 16.0487 18.3724L15.8203 19.3024C15.8323 19.2495 15.855 19.1997 15.8869 19.156C15.9188 19.1124 15.9593 19.0758 16.0059 19.0486C16.0525 19.0214 16.1041 19.0041 16.1576 18.9979C16.2111 18.9917 16.2652 18.9966 16.3167 19.0124C16.415 19.0358 16.5077 19.0787 16.5894 19.1386C16.671 19.1985 16.7399 19.2742 16.7922 19.3612C16.8444 19.4483 16.8789 19.545 16.8936 19.6456C16.9083 19.7463 16.9029 19.8489 16.8777 19.9474L17.1061 19.0174C17.1305 18.9189 17.1354 18.8165 17.1204 18.7161C17.1054 18.6157 17.0709 18.5192 17.0187 18.4323C16.9666 18.3454 16.8979 18.2698 16.8166 18.2097C16.7353 18.1497 16.6431 18.1064 16.5451 18.0824Z" fill="#FFF48C"/>
<path d="M16.5037 18.0852C16.7004 18.1342 16.8697 18.2599 16.9744 18.4346C17.079 18.6093 17.1105 18.8188 17.0618 19.0169L16.26 22.2809C15.9611 22.2064 15.7039 22.0154 15.5449 21.75C15.3858 21.4845 15.338 21.1662 15.412 20.8652L16.0279 18.3578C16.0529 18.2561 16.1169 18.1687 16.2059 18.1146C16.2949 18.0605 16.4016 18.0443 16.5025 18.0694L16.5037 18.0852Z" stroke="#45413C" stroke-width="0.499625" stroke-linecap="round" stroke-linejoin="round"/>
<path d="M18.3721 19.2424L17.4289 19.0024C17.2837 18.9656 17.13 18.9877 17.0009 19.0639C16.8717 19.1401 16.7775 19.2644 16.7384 19.41C16.6993 19.5555 16.7186 19.7107 16.792 19.8421C16.8655 19.9734 16.9872 20.0705 17.131 20.1124C16.9887 20.0926 16.8442 20.1276 16.7263 20.2104C16.6085 20.2932 16.526 20.4177 16.4952 20.5591C16.4645 20.7005 16.4879 20.8483 16.5607 20.9731C16.6334 21.0979 16.7502 21.1905 16.8878 21.2324C16.8147 21.2143 16.7389 21.2109 16.6646 21.2224C16.5903 21.2338 16.5189 21.2599 16.4546 21.2992C16.3903 21.3384 16.3343 21.39 16.2898 21.451C16.2453 21.5121 16.2132 21.5813 16.1952 21.6549C16.1773 21.7284 16.1739 21.8048 16.1853 21.8796C16.1967 21.9545 16.2226 22.0264 16.2615 22.0911C16.3005 22.1559 16.3517 22.2123 16.4123 22.2571C16.4729 22.302 16.5417 22.3343 16.6147 22.3524L17.5728 22.5874C17.8526 22.6568 18.1483 22.6116 18.395 22.4616C18.6417 22.3116 18.8191 22.0691 18.8884 21.7874L19.1863 20.5674C19.2552 20.2856 19.2103 19.9878 19.0614 19.7393C18.9124 19.4909 18.6717 19.3121 18.392 19.2424H18.3721Z" fill="#FFE500"/>
<path d="M18.3716 19.2424L17.4284 19.0024C17.3554 18.9845 17.2796 18.9814 17.2053 18.9931C17.1311 19.0048 17.0599 19.0311 16.9958 19.0706C16.9317 19.1101 16.8759 19.1619 16.8317 19.2232C16.7876 19.2844 16.7558 19.3538 16.7384 19.4274C16.7109 19.5238 16.7109 19.626 16.7384 19.7224C16.8066 19.65 16.8923 19.5966 16.9872 19.5677C17.0821 19.5388 17.1828 19.5352 17.2795 19.5574L18.2426 19.7974C18.3809 19.8314 18.5112 19.8925 18.626 19.9773C18.7408 20.062 18.8379 20.1688 18.9116 20.2914C18.9854 20.414 19.0345 20.5501 19.056 20.6918C19.0774 20.8336 19.071 20.9782 19.0369 21.1174L19.1709 20.5674C19.205 20.4275 19.2113 20.2823 19.1896 20.1399C19.1678 19.9976 19.1184 19.861 19.0442 19.7379C18.9699 19.6148 18.8723 19.5077 18.7569 19.4227C18.6415 19.3377 18.5106 19.2764 18.3716 19.2424V19.2424Z" fill="#FFF48C"/>
<path d="M18.3721 19.2424L17.4289 19.0024C17.2837 18.9656 17.13 18.9877 17.0009 19.0639C16.8717 19.1401 16.7775 19.2644 16.7384 19.41C16.6993 19.5555 16.7186 19.7107 16.792 19.8421C16.8655 19.9734 16.9872 20.0705 17.131 20.1124C16.9887 20.0926 16.8442 20.1276 16.7263 20.2104C16.6085 20.2932 16.526 20.4177 16.4952 20.5591C16.4645 20.7005 16.4879 20.8483 16.5607 20.9731C16.6334 21.0979 16.7502 21.1905 16.8878 21.2324C16.8147 21.2143 16.7389 21.2109 16.6646 21.2224C16.5903 21.2338 16.5189 21.2599 16.4546 21.2992C16.3903 21.3384 16.3343 21.39 16.2898 21.451C16.2453 21.5121 16.2132 21.5813 16.1952 21.6549C16.1773 21.7284 16.1739 21.8048 16.1853 21.8796C16.1967 21.9545 16.2226 22.0264 16.2615 22.0911C16.3005 22.1559 16.3517 22.2123 16.4123 22.2571C16.4729 22.302 16.5417 22.3343 16.6147 22.3524L17.5728 22.5874C17.8526 22.6568 18.1483 22.6116 18.395 22.4616C18.6417 22.3116 18.8191 22.0691 18.8884 21.7874L19.1863 20.5674C19.2552 20.2856 19.2103 19.9878 19.0614 19.7393C18.9124 19.4909 18.6717 19.3121 18.392 19.2424H18.3721Z" stroke="#45413C" stroke-width="0.5" stroke-linecap="round" stroke-linejoin="round"/>
<path d="M15.4777 9.68739C14.8522 9.50913 14.2742 9.19206 13.7863 8.75946C13.2984 8.32685 12.9128 7.78968 12.6579 7.18739L12.3501 6.44739C11.1533 8.07218 9.38715 9.17703 7.41058 9.53739L6.47728 9.70739C6.35333 9.69812 6.22881 9.7147 6.11152 9.7561C5.99422 9.79751 5.88667 9.86284 5.79559 9.94801C5.7045 10.0332 5.63185 10.1364 5.58216 10.2511C5.53248 10.3659 5.50684 10.4897 5.50684 10.6149C5.50684 10.7401 5.53248 10.8639 5.58216 10.9787C5.63185 11.0934 5.7045 11.1966 5.79559 11.2818C5.88667 11.3669 5.99422 11.4323 6.11152 11.4737C6.22881 11.5151 6.35333 11.5317 6.47728 11.5224H6.53189C6.68783 12.5978 7.22284 13.5807 8.03913 14.2915C8.85541 15.0023 9.89842 15.3935 10.9775 15.3935C12.0565 15.3935 13.0996 15.0023 13.9158 14.2915C14.7321 13.5807 15.2671 12.5978 15.4231 11.5224H15.4777C15.7051 11.5054 15.9177 11.4024 16.0729 11.2341C16.228 11.0657 16.3143 10.8446 16.3143 10.6149C16.3143 10.3852 16.228 10.164 16.0729 9.99571C15.9177 9.8274 15.7051 9.7244 15.4777 9.70739V9.68739Z" fill="#FFE500" stroke="#45413C" stroke-width="0.5" stroke-linecap="round" stroke-linejoin="round"/>
<path d="M8.2793 10.4074C8.2793 10.4835 8.30172 10.558 8.34372 10.6213C8.38572 10.6846 8.44542 10.734 8.51527 10.7631C8.58512 10.7922 8.66198 10.7999 8.73613 10.785C8.81028 10.7701 8.87839 10.7335 8.93185 10.6796C8.98531 10.6258 9.02172 10.5572 9.03647 10.4825C9.05121 10.4078 9.04364 10.3304 9.01471 10.2601C8.98578 10.1897 8.93679 10.1296 8.87392 10.0873C8.81106 10.045 8.73716 10.0224 8.66155 10.0224C8.56017 10.0224 8.46294 10.063 8.39126 10.1352C8.31957 10.2074 8.2793 10.3053 8.2793 10.4074Z" fill="#45413C" stroke="#45413C" stroke-width="0.5" stroke-linecap="round" stroke-linejoin="round"/>
<path d="M13.6758 10.4074C13.6768 10.4847 13.6549 10.5606 13.6129 10.6254C13.571 10.6902 13.5109 10.741 13.4402 10.7713C13.3695 10.8015 13.2915 10.81 13.2161 10.7955C13.1407 10.781 13.0712 10.7443 13.0166 10.6899C12.9619 10.6356 12.9245 10.5661 12.9092 10.4903C12.8938 10.4146 12.9012 10.3359 12.9304 10.2643C12.9595 10.1928 13.0091 10.1316 13.0729 10.0885C13.1367 10.0454 13.2118 10.0224 13.2886 10.0224C13.3904 10.0224 13.4881 10.0628 13.5606 10.1349C13.6331 10.2069 13.6745 10.3048 13.6758 10.4074V10.4074Z" fill="#45413C" stroke="#45413C" stroke-width="0.5" stroke-linecap="round" stroke-linejoin="round"/>
<path d="M9.57025 12.7574C9.53844 12.757 9.50692 12.7636 9.47781 12.7765C9.44871 12.7894 9.42267 12.8085 9.40147 12.8324C9.38141 12.8574 9.36666 12.8862 9.35812 12.9172C9.34958 12.9481 9.34744 12.9805 9.35182 13.0124C9.41585 13.4001 9.6144 13.7523 9.91212 14.0064C10.2098 14.2605 10.5874 14.4 10.9777 14.4C11.3679 14.4 11.7455 14.2605 12.0432 14.0064C12.3409 13.7523 12.5395 13.4001 12.6035 13.0124C12.6082 12.9802 12.6057 12.9473 12.5963 12.9162C12.5868 12.8851 12.5706 12.8564 12.5489 12.8324C12.5291 12.8081 12.504 12.7886 12.4756 12.7756C12.4472 12.7626 12.4162 12.7564 12.3851 12.7574H9.57025Z" fill="#FF6242"/>
<path d="M10.9747 13.4474C10.5264 13.4297 10.0855 13.5654 9.72363 13.8324C9.87921 14.0093 10.0703 14.1509 10.2842 14.2478C10.4982 14.3448 10.7301 14.395 10.9647 14.395C11.1993 14.395 11.4313 14.3448 11.6452 14.2478C11.8592 14.1509 12.0502 14.0093 12.2058 13.8324C11.8494 13.5697 11.4161 13.4343 10.9747 13.4474Z" fill="#FFA694"/>
<path d="M9.57025 12.7574C9.53844 12.757 9.50692 12.7636 9.47781 12.7765C9.44871 12.7894 9.42267 12.8085 9.40147 12.8324C9.38141 12.8574 9.36666 12.8862 9.35812 12.9172C9.34958 12.9481 9.34744 12.9805 9.35182 13.0124C9.41585 13.4001 9.6144 13.7523 9.91212 14.0064C10.2098 14.2605 10.5874 14.4 10.9777 14.4C11.3679 14.4 11.7455 14.2605 12.0432 14.0064C12.3409 13.7523 12.5395 13.4001 12.6035 13.0124C12.6082 12.9802 12.6057 12.9473 12.5963 12.9162C12.5868 12.8851 12.5706 12.8564 12.5489 12.8324C12.5291 12.8081 12.504 12.7886 12.4756 12.7756C12.4472 12.7626 12.4162 12.7564 12.3851 12.7574H9.57025Z" stroke="#45413C" stroke-width="0.5" stroke-linecap="round" stroke-linejoin="round"/>
<path d="M7.5293 12.0524C7.5293 12.1319 7.5816 12.2083 7.6747 12.2645C7.7678 12.3208 7.89407 12.3524 8.02573 12.3524C8.1574 12.3524 8.28367 12.3208 8.37677 12.2645C8.46987 12.2083 8.52217 12.1319 8.52217 12.0524C8.52217 11.9728 8.46987 11.8965 8.37677 11.8402C8.28367 11.784 8.1574 11.7524 8.02573 11.7524C7.89407 11.7524 7.7678 11.784 7.6747 11.8402C7.5816 11.8965 7.5293 11.9728 7.5293 12.0524Z" fill="#FFAA54"/>
<path d="M13.4268 12.0524C13.4268 12.1319 13.4791 12.2083 13.5722 12.2645C13.6653 12.3208 13.7915 12.3524 13.9232 12.3524C14.0549 12.3524 14.1811 12.3208 14.2742 12.2645C14.3673 12.2083 14.4196 12.1319 14.4196 12.0524C14.4196 11.9728 14.3673 11.8965 14.2742 11.8402C14.1811 11.784 14.0549 11.7524 13.9232 11.7524C13.7915 11.7524 13.6653 11.784 13.5722 11.8402C13.4791 11.8965 13.4268 11.9728 13.4268 12.0524Z" fill="#FFAA54"/>
<path d="M5.61816 7.94739C5.61816 7.41739 8.02588 6.98739 10.9896 6.98739C13.9533 6.98739 16.3611 7.41739 16.3611 7.94739L16.1873 6.02739C16.1873 5.50239 13.864 5.07239 10.9896 5.07239C8.11524 5.07239 5.79192 5.50239 5.79192 6.02739L5.61816 7.94739Z" fill="#8CA4B8"/>
<path d="M5.62382 7.91736C5.62149 7.92722 5.62149 7.9375 5.62382 7.94736V7.91736Z" fill="#627B8C"/>
<path d="M10.9749 5.07235C8.10548 5.07235 5.77719 5.50235 5.77719 6.02735L5.6084 7.91735C5.69279 7.41735 8.0608 6.98735 10.9749 6.98735H11.8089C12.8307 6.59343 13.7828 6.03629 14.6287 5.33735C13.4203 5.14549 12.198 5.05685 10.9749 5.07235V5.07235Z" fill="#627B8C"/>
<path d="M5.61816 7.94739C5.61816 7.41739 8.02588 6.98739 10.9896 6.98739C13.9533 6.98739 16.3611 7.41739 16.3611 7.94739L16.1873 6.02739C16.1873 5.50239 13.864 5.07239 10.9896 5.07239C8.11524 5.07239 5.79192 5.50239 5.79192 6.02739L5.61816 7.94739Z" stroke="#45413C" stroke-width="0.5" stroke-linecap="round" stroke-linejoin="round"/>
<path d="M16.8621 3.59239C15.7551 1.91739 12.9601 1.47739 10.9744 1.63239C8.66738 1.88741 6.4545 2.6949 4.52071 3.98739C3.61223 4.63739 3.29947 5.28739 3.56258 5.68239C4.11859 6.68239 7.07239 6.91739 11.5949 5.07739C14.1714 5.13239 16.1721 5.53739 16.1721 6.02739C16.187 6.02739 17.8351 5.07239 16.8621 3.59239Z" fill="#8CA4B8"/>
<path d="M3.77605 5.94739C3.98747 5.67011 4.2384 5.42581 4.52071 5.22239C6.45345 3.9278 8.66686 3.12011 10.9744 2.86739C12.9601 2.71239 15.7402 3.15239 16.8472 4.82739C16.9094 4.92302 16.9642 5.02331 17.0111 5.12739C17.1278 4.8814 17.1743 4.60756 17.1453 4.33649C17.1164 4.06542 17.0132 3.80779 16.8472 3.59239C15.7551 1.91739 12.9601 1.47739 10.9744 1.63239C8.66738 1.88741 6.4545 2.6949 4.52071 3.98739C3.61223 4.63739 3.29947 5.28739 3.56258 5.68239C3.61814 5.78239 3.69034 5.87203 3.77605 5.94739V5.94739Z" fill="#ADC4D9"/>
<path d="M16.8621 3.59239C15.7551 1.91739 12.9601 1.47739 10.9744 1.63239C8.66738 1.88741 6.4545 2.6949 4.52071 3.98739C3.61223 4.63739 3.29947 5.28739 3.56258 5.68239C4.11859 6.68239 7.07239 6.91739 11.5949 5.07739C14.1714 5.13239 16.1721 5.53739 16.1721 6.02739C16.187 6.02739 17.8351 5.07239 16.8621 3.59239Z" stroke="#45413C" stroke-width="0.5" stroke-linecap="round" stroke-linejoin="round"/>
<path d="M11.6104 5.07739C12.3103 4.79239 13.0451 4.46239 13.8145 4.07739" stroke="#45413C" stroke-width="0.5" stroke-linecap="round" stroke-linejoin="round"/>
<path d="M10.1367 1.72605C10.152 1.86977 10.2566 1.9979 10.4275 2.08226C10.5985 2.16663 10.8218 2.2003 11.0482 2.17588C11.2747 2.15146 11.4859 2.07095 11.6352 1.95206C11.7846 1.83317 11.8599 1.68563 11.8446 1.54191C11.8293 1.39819 11.7247 1.27005 11.5538 1.18569C11.3828 1.10133 11.1595 1.06766 10.9331 1.09207C10.7066 1.11649 10.4954 1.197 10.3461 1.3159C10.1967 1.43479 10.1214 1.58233 10.1367 1.72605V1.72605Z" fill="#627B8C" stroke="#45413C" stroke-width="0.5" stroke-linecap="round" stroke-linejoin="round"/>
</svg>
