<svg width="23" height="14" viewBox="0 0 23 14" fill="none" xmlns="http://www.w3.org/2000/svg">
<path opacity="0.15" d="M3.49707 12.9297C3.49707 13.0282 3.6961 13.1258 4.0828 13.2168C4.4695 13.3078 5.03629 13.3904 5.75082 13.4601C6.46534 13.5297 7.31361 13.585 8.24718 13.6227C9.18075 13.6603 10.1814 13.6797 11.1918 13.6797C12.2023 13.6797 13.2029 13.6603 14.1365 13.6227C15.0701 13.585 15.9183 13.5297 16.6329 13.4601C17.3474 13.3904 17.9142 13.3078 18.3009 13.2168C18.6876 13.1258 18.8866 13.0282 18.8866 12.9297C18.8866 12.8313 18.6876 12.7337 18.3009 12.6427C17.9142 12.5517 17.3474 12.4691 16.6329 12.3994C15.9183 12.3298 15.0701 12.2745 14.1365 12.2368C13.2029 12.1991 12.2023 12.1797 11.1918 12.1797C10.1814 12.1797 9.18075 12.1991 8.24718 12.2368C7.31361 12.2745 6.46534 12.3298 5.75082 12.3994C5.03629 12.4691 4.4695 12.5517 4.0828 12.6427C3.6961 12.7337 3.49707 12.8313 3.49707 12.9297V12.9297Z" fill="#45413C"/>
<path d="M10.4817 4.54475C9.91019 4.75786 9.43651 5.17526 9.15088 5.71743C8.86525 6.2596 8.78762 6.88865 8.93279 7.48475C9.13976 8.06602 9.55301 8.54956 10.0929 8.84221C10.6328 9.13487 11.2611 9.21592 11.8568 9.06975L14.5227 8.26475L13.778 6.79475L11.6483 7.42975C11.466 7.47334 11.274 7.44511 11.1116 7.35084C10.9493 7.25657 10.8289 7.10338 10.775 6.92262C10.721 6.74186 10.7378 6.54718 10.8217 6.37842C10.9056 6.20966 11.0503 6.07956 11.2263 6.01475L20.6586 3.17475L20.1969 1.61975L10.4817 4.54475Z" fill="#FFE500"/>
<path d="M10.4809 5.41475L13.7127 4.43975L14.9737 4.05475L20.1714 2.48975L20.3998 3.24975L20.6331 3.17475L20.1714 1.61975L14.9737 3.17975L13.7127 3.55975L10.4809 4.53475C9.93184 4.73211 9.46924 5.11784 9.17423 5.62432C8.87922 6.1308 8.77064 6.72571 8.86752 7.30475C8.94592 6.87393 9.13666 6.47186 9.42017 6.13974C9.70369 5.80763 10.0698 5.55741 10.4809 5.41475V5.41475Z" fill="#FFF48C"/>
<path d="M11.6485 7.42975C11.5052 7.47682 11.351 7.47805 11.207 7.43329C11.063 7.38853 10.9363 7.29996 10.8443 7.17975C10.7779 7.27147 10.7334 7.37743 10.7145 7.48934C10.6955 7.60124 10.7026 7.71605 10.7351 7.82475C10.7624 7.91802 10.8077 8.00495 10.8684 8.08056C10.9292 8.15618 11.0041 8.219 11.0889 8.26544C11.1737 8.31188 11.2668 8.34102 11.3628 8.35119C11.4589 8.36137 11.5559 8.35239 11.6485 8.32475L13.7534 7.67975L14.1158 8.39475L14.4981 8.27975L13.7534 6.80975L11.6485 7.42975Z" fill="#FFF48C"/>
<path d="M10.4817 4.54475C9.91019 4.75786 9.43651 5.17526 9.15088 5.71743C8.86525 6.2596 8.78762 6.88865 8.93279 7.48475C9.13976 8.06602 9.55301 8.54956 10.0929 8.84221C10.6328 9.13487 11.2611 9.21592 11.8568 9.06975L14.5227 8.26475L13.778 6.79475L11.6483 7.42975C11.466 7.47334 11.274 7.44511 11.1116 7.35084C10.9493 7.25657 10.8289 7.10338 10.775 6.92262C10.721 6.74186 10.7378 6.54718 10.8217 6.37842C10.9056 6.20966 11.0503 6.07956 11.2263 6.01475L20.6586 3.17475L20.1969 1.61975L10.4817 4.54475Z" stroke="#45413C" stroke-width="0.5" stroke-linecap="round" stroke-linejoin="round"/>
<path d="M19.0036 1.81024L20.1259 1.47155L20.7144 3.44966L19.5921 3.78835C19.4473 3.83218 19.2914 3.81796 19.1568 3.74865C19.0222 3.67935 18.9194 3.56033 18.8699 3.41647L18.6135 2.55434C18.5899 2.4797 18.5813 2.40108 18.5882 2.32306C18.5951 2.24504 18.6174 2.16919 18.6537 2.09992C18.69 2.03066 18.7396 1.96937 18.7997 1.91964C18.8598 1.8699 18.9291 1.83272 19.0036 1.81024V1.81024Z" fill="#FFE500"/>
<path d="M19.0049 1.81975C18.9313 1.84207 18.8627 1.87879 18.8031 1.92781C18.7435 1.97683 18.6941 2.03719 18.6577 2.10544C18.6213 2.17369 18.5986 2.2485 18.5908 2.32559C18.5831 2.40269 18.5906 2.48055 18.6127 2.55475L18.861 3.39975C18.8209 3.25128 18.84 3.0929 18.9141 2.9584C18.9883 2.8239 19.1118 2.72391 19.2581 2.67975L20.385 2.34475L20.1318 1.49475L19.0049 1.81975Z" fill="#FFF48C"/>
<path d="M19.0036 1.81024L20.1259 1.47155L20.7144 3.44966L19.5921 3.78835C19.4473 3.83218 19.2914 3.81796 19.1568 3.74865C19.0222 3.67935 18.9194 3.56033 18.8699 3.41647L18.6135 2.55434C18.5899 2.4797 18.5813 2.40108 18.5882 2.32306C18.5951 2.24504 18.6174 2.16919 18.6537 2.09992C18.69 2.03066 18.7396 1.96937 18.7997 1.91964C18.8598 1.8699 18.9291 1.83272 19.0036 1.81024V1.81024Z" stroke="#45413C" stroke-width="0.5" stroke-linecap="round" stroke-linejoin="round"/>
<path d="M21.7601 2.83476L21.3431 1.42476C21.2982 1.27475 21.1964 1.14861 21.0598 1.07372C20.9232 0.998837 20.7627 0.981242 20.6133 1.02476C20.5397 1.04708 20.4711 1.0838 20.4115 1.13282C20.3519 1.18184 20.3025 1.2422 20.2661 1.31045C20.2297 1.3787 20.207 1.45351 20.1992 1.5306C20.1915 1.6077 20.199 1.68556 20.2211 1.75976L20.6332 3.17976C20.6553 3.25429 20.6919 3.32368 20.7407 3.38399C20.7895 3.4443 20.8496 3.49434 20.9176 3.53125C20.9856 3.56816 21.0601 3.59122 21.137 3.59912C21.2138 3.60701 21.2914 3.59958 21.3654 3.57726C21.4394 3.55494 21.5083 3.51815 21.5682 3.46901C21.6281 3.41986 21.6778 3.35932 21.7144 3.29084C21.7511 3.22235 21.774 3.14727 21.7818 3.06987C21.7896 2.99248 21.7823 2.91428 21.7601 2.83976V2.83476Z" fill="#FFE500"/>
<path d="M20.6084 1.02477C20.5348 1.04709 20.4662 1.08381 20.4066 1.13283C20.347 1.18184 20.2976 1.2422 20.2612 1.31045C20.2248 1.37871 20.2021 1.45351 20.1944 1.53061C20.1866 1.6077 20.1941 1.68557 20.2163 1.75977L20.4843 2.67977C20.4396 2.52992 20.4557 2.3683 20.5293 2.23046C20.6028 2.09262 20.7277 1.98985 20.8765 1.94477C21.0253 1.89968 21.1858 1.91597 21.3226 1.99004C21.4595 2.06412 21.5615 2.18992 21.6063 2.33977L21.3432 1.42477C21.2984 1.27362 21.1958 1.14658 21.058 1.07158C20.9202 0.996569 20.7585 0.979731 20.6084 1.02477V1.02477Z" fill="#FFF48C"/>
<path d="M21.7601 2.83476L21.3431 1.42476C21.2982 1.27475 21.1964 1.14861 21.0598 1.07372C20.9232 0.998837 20.7627 0.981242 20.6133 1.02476C20.5397 1.04708 20.4711 1.0838 20.4115 1.13282C20.3519 1.18184 20.3025 1.2422 20.2661 1.31045C20.2297 1.3787 20.207 1.45351 20.1992 1.5306C20.1915 1.6077 20.199 1.68556 20.2211 1.75976L20.6332 3.17976C20.6553 3.25429 20.6919 3.32368 20.7407 3.38399C20.7895 3.4443 20.8496 3.49434 20.9176 3.53125C20.9856 3.56816 21.0601 3.59122 21.137 3.59912C21.2138 3.60701 21.2914 3.59958 21.3654 3.57726C21.4394 3.55494 21.5083 3.51815 21.5682 3.46901C21.6281 3.41986 21.6778 3.35932 21.7144 3.29084C21.7511 3.22235 21.774 3.14727 21.7818 3.06987C21.7896 2.99248 21.7823 2.91428 21.7601 2.83976V2.83476Z" stroke="#45413C" stroke-width="0.5" stroke-linecap="round" stroke-linejoin="round"/>
<path d="M14.1354 8.80479L12.4078 2.96479C12.3754 2.87544 12.3091 2.80267 12.2235 2.76238C12.1379 2.72209 12.04 2.71757 11.9511 2.74979L11.2214 2.96979C11.1296 2.99351 11.0505 3.052 11.0006 3.13305C10.9506 3.21411 10.9337 3.31146 10.9533 3.40479L12.6908 9.24479C12.7651 9.4181 12.9001 9.55786 13.07 9.63752C13.24 9.71718 13.433 9.73119 13.6125 9.67689C13.7921 9.62259 13.9455 9.50375 14.0437 9.34297C14.142 9.18219 14.1781 8.99067 14.1454 8.80479H14.1354Z" fill="#FFE500"/>
<path d="M15.5945 8.39473L13.8619 2.54973C13.8273 2.46082 13.76 2.3888 13.674 2.34874C13.5879 2.30867 13.4898 2.30365 13.4002 2.33473L12.6754 2.55473C12.6293 2.56532 12.5858 2.58501 12.5473 2.61267C12.5088 2.64033 12.4761 2.67541 12.4512 2.71586C12.4263 2.75632 12.4096 2.80136 12.402 2.84837C12.3945 2.89538 12.3963 2.94343 12.4073 2.98973L14.1449 8.83473C14.2146 9.01345 14.3486 9.1592 14.5202 9.24302C14.6917 9.32685 14.8883 9.34262 15.0709 9.2872C15.2534 9.23179 15.4086 9.10924 15.5056 8.9439C15.6026 8.77856 15.6343 8.58253 15.5945 8.39473V8.39473Z" fill="#FFE500"/>
<path d="M12.9633 7.53975C12.7849 7.60437 12.5883 7.59546 12.4163 7.51494C12.2444 7.43443 12.1109 7.28882 12.0449 7.10975L12.6804 9.24475C12.7547 9.41805 12.8896 9.55781 13.0596 9.63748C13.2295 9.71714 13.4226 9.73115 13.6021 9.67684C13.7816 9.62254 13.9351 9.50371 14.0333 9.34293C14.1315 9.18215 14.1677 8.99062 14.1349 8.80475L13.4995 6.67975C13.5384 6.86515 13.5043 7.05854 13.4042 7.21903C13.3041 7.37952 13.146 7.49453 12.9633 7.53975Z" fill="#EBCB00"/>
<path d="M14.4282 7.12475C14.3389 7.15707 14.2442 7.17117 14.1494 7.16624C14.0547 7.16131 13.9619 7.13744 13.8764 7.09602C13.7909 7.05461 13.7145 6.99647 13.6515 6.925C13.5886 6.85353 13.5404 6.77016 13.5098 6.67975L14.1452 8.81975C14.215 8.99847 14.349 9.14421 14.5205 9.22804C14.6921 9.31186 14.8887 9.32764 15.0712 9.27222C15.2538 9.21681 15.409 9.09426 15.506 8.92892C15.603 8.76358 15.6347 8.56754 15.5948 8.37975L14.9643 6.23975C14.9872 6.33333 14.9915 6.43055 14.9769 6.52581C14.9623 6.62107 14.9292 6.71248 14.8793 6.79475C14.8295 6.87703 14.7639 6.94855 14.6865 7.00519C14.6091 7.06183 14.5213 7.10246 14.4282 7.12475V7.12475Z" fill="#EBCB00"/>
<path d="M14.1354 8.80479L12.4078 2.96479C12.3754 2.87544 12.3091 2.80267 12.2235 2.76238C12.1379 2.72209 12.04 2.71757 11.9511 2.74979L11.2214 2.96979C11.1296 2.99351 11.0505 3.052 11.0006 3.13305C10.9506 3.21411 10.9337 3.31146 10.9533 3.40479L12.6908 9.24479C12.7651 9.4181 12.9001 9.55786 13.07 9.63752C13.24 9.71718 13.433 9.73119 13.6125 9.67689C13.7921 9.62259 13.9455 9.50375 14.0437 9.34297C14.142 9.18219 14.1781 8.99067 14.1454 8.80479H14.1354Z" stroke="#45413C" stroke-width="0.5" stroke-linecap="round" stroke-linejoin="round"/>
<path d="M15.5945 8.39473L13.8619 2.54973C13.8273 2.46082 13.76 2.3888 13.674 2.34874C13.5879 2.30867 13.4898 2.30365 13.4002 2.33473L12.6754 2.55473C12.6293 2.56532 12.5858 2.58501 12.5473 2.61267C12.5088 2.64033 12.4761 2.67541 12.4512 2.71586C12.4263 2.75632 12.4096 2.80136 12.402 2.84837C12.3945 2.89538 12.3963 2.94343 12.4073 2.98973L14.1449 8.83473C14.2146 9.01345 14.3486 9.1592 14.5202 9.24302C14.6917 9.32685 14.8883 9.34262 15.0709 9.2872C15.2534 9.23179 15.4086 9.10924 15.5056 8.9439C15.6026 8.77856 15.6343 8.58253 15.5945 8.39473V8.39473Z" stroke="#45413C" stroke-width="0.5" stroke-linecap="round" stroke-linejoin="round"/>
<path d="M14.9743 3.17976L9.5135 4.82976C6.28666 5.80476 0.666992 2.87976 0.666992 2.87976L3.64561 12.9198C3.64561 12.9198 6.73842 7.36476 9.97022 6.38976L15.158 4.82976C15.3403 4.78617 15.5323 4.8144 15.6946 4.90867C15.857 5.00294 15.9774 5.15613 16.0313 5.33689C16.0852 5.51765 16.0685 5.71233 15.9846 5.88109C15.9007 6.04986 15.756 6.17995 15.58 6.24476L15.0091 6.41976L15.4707 7.97476L16.3246 7.71476C16.9007 7.50637 17.38 7.09094 17.6705 6.54829C17.9609 6.00563 18.0421 5.37401 17.8983 4.77476C17.6932 4.19165 17.2808 3.70582 16.7407 3.41122C16.2006 3.11661 15.5713 3.03414 14.9743 3.17976V3.17976Z" fill="#FFE500"/>
<path d="M9.49861 5.67976L14.9594 4.02476C15.5551 3.87859 16.1834 3.95964 16.7233 4.2523C17.2632 4.54495 17.6765 5.0285 17.8834 5.60976C17.8834 5.67476 17.9182 5.73476 17.9281 5.79976C17.9921 5.46757 17.9768 5.12482 17.8834 4.79976C17.6833 4.21519 17.2752 3.72606 16.7379 3.42686C16.2006 3.12766 15.5723 3.03963 14.9743 3.17976L9.5135 4.82976C6.28666 5.80476 0.666992 2.87976 0.666992 2.87976L0.95989 3.85476C2.13645 4.44476 6.70863 6.51976 9.49861 5.67976Z" fill="#FFF48C"/>
<path d="M14.9743 3.17976L9.5135 4.82976C6.28666 5.80476 0.666992 2.87976 0.666992 2.87976L3.64561 12.9198C3.64561 12.9198 6.73842 7.36476 9.97022 6.38976L15.158 4.82976C15.3403 4.78617 15.5323 4.8144 15.6946 4.90867C15.857 5.00294 15.9774 5.15613 16.0313 5.33689C16.0852 5.51765 16.0685 5.71233 15.9846 5.88109C15.9007 6.04986 15.756 6.17995 15.58 6.24476L15.0091 6.41976L15.4707 7.97476L16.3246 7.71476C16.9007 7.50637 17.38 7.09094 17.6705 6.54829C17.9609 6.00563 18.0421 5.37401 17.8983 4.77476C17.6932 4.19165 17.2808 3.70582 16.7407 3.41122C16.2006 3.11661 15.5713 3.03414 14.9743 3.17976V3.17976Z" stroke="#45413C" stroke-width="0.5" stroke-linecap="round" stroke-linejoin="round"/>
<path d="M11.1768 1.56476L11.564 2.86476Z" fill="#FFE500"/>
<path d="M11.1768 1.56476L11.564 2.86476" stroke="#45413C" stroke-width="0.5" stroke-linecap="round" stroke-linejoin="round"/>
<path d="M12.6309 1.12476L13.0131 2.42476Z" fill="#FFE500"/>
<path d="M12.6309 1.12476L13.0131 2.42476" stroke="#45413C" stroke-width="0.5" stroke-linecap="round" stroke-linejoin="round"/>
<path d="M10.8887 1.64978L11.4894 1.46478Z" fill="#FFE500"/>
<path d="M10.8887 1.64978L11.4894 1.46478" stroke="#45413C" stroke-width="0.5" stroke-linecap="round" stroke-linejoin="round"/>
<path d="M12.3232 1.20979L12.9289 1.02979Z" fill="#FFE500"/>
<path d="M12.3232 1.20979L12.9289 1.02979" stroke="#45413C" stroke-width="0.5" stroke-linecap="round" stroke-linejoin="round"/>
<path d="M3.32285 7.55477C4.1519 10.3248 4.31572 12.7348 3.64057 12.9298C2.96541 13.1248 1.79382 11.0398 0.989593 8.26477C0.185365 5.48977 -0.00328123 3.08477 0.652016 2.88977C1.30731 2.69477 2.4789 4.77977 3.32285 7.55477Z" fill="#FFE500"/>
<path d="M0.632085 5.50978C1.62496 5.21978 3.06959 7.22478 3.89864 10.0098C3.75872 9.17995 3.56637 8.35995 3.32277 7.55478C2.47883 4.77978 1.30228 2.67978 0.651943 2.88978C0.220042 3.01978 0.155506 4.12478 0.373938 5.66478C0.448377 5.59563 0.53629 5.54285 0.632085 5.50978V5.50978Z" fill="#EBCB00"/>
<path d="M3.32285 7.55477C4.1519 10.3248 4.31572 12.7348 3.64057 12.9298C2.96541 13.1248 1.79382 11.0398 0.989593 8.26477C0.185365 5.48977 -0.00328123 3.08477 0.652016 2.88977C1.30731 2.69477 2.4789 4.77977 3.32285 7.55477Z" stroke="#45413C" stroke-width="0.5" stroke-linecap="round" stroke-linejoin="round"/>
</svg>
