<svg width="20" height="21" viewBox="0 0 20 21" fill="none" xmlns="http://www.w3.org/2000/svg">
<path d="M1.43457 9.75769C1.43457 12.0804 2.34987 14.3079 3.97912 15.9503C5.60837 17.5927 7.81811 18.5154 10.1222 18.5154C12.4263 18.5154 14.6361 17.5927 16.2653 15.9503C17.8946 14.3079 18.8099 12.0804 18.8099 9.75769C18.8099 7.435 17.8946 5.20745 16.2653 3.56507C14.6361 1.92268 12.4263 1 10.1222 1C7.81811 1 5.60837 1.92268 3.97912 3.56507C2.34987 5.20745 1.43457 7.435 1.43457 9.75769V9.75769Z" fill="#FFE500"/>
<path d="M10.1222 1C8.40397 1 6.7243 1.51363 5.29562 2.47594C3.86695 3.43824 2.75343 4.80601 2.09588 6.40626C1.43833 8.00652 1.26629 9.7674 1.6015 11.4662C1.93672 13.1651 2.76414 14.7255 3.97913 15.9503C5.19412 17.1751 6.74211 18.0092 8.42735 18.3471C10.1126 18.685 11.8594 18.5116 13.4468 17.8487C15.0343 17.1859 16.3911 16.0634 17.3457 14.6232C18.3003 13.183 18.8099 11.4898 18.8099 9.75769C18.8099 7.435 17.8946 5.20745 16.2653 3.56507C14.6361 1.92268 12.4263 1 10.1222 1V1ZM10.1222 17.2017C8.55432 17.2017 7.02162 16.733 5.71795 15.8549C4.41428 14.9768 3.3982 13.7287 2.79819 12.2685C2.19817 10.8083 2.04118 9.20147 2.34707 7.65129C2.65295 6.10111 3.40797 4.67718 4.51665 3.55957C5.62533 2.44195 7.03787 1.68084 8.57565 1.37249C10.1134 1.06414 11.7074 1.2224 13.1559 1.82725C14.6045 2.4321 15.8426 3.45638 16.7137 4.77055C17.5848 6.08473 18.0497 7.62978 18.0497 9.21033C18.0497 11.3298 17.2145 13.3624 15.7278 14.8611C14.2411 16.3598 12.2247 17.2017 10.1222 17.2017V17.2017Z" fill="#EBCB00"/>
<path d="M7.51562 2.75155C7.51562 2.92575 7.79022 3.09282 8.27899 3.216C8.76777 3.33918 9.43069 3.40838 10.1219 3.40838C10.8132 3.40838 11.4761 3.33918 11.9648 3.216C12.4536 3.09282 12.7282 2.92575 12.7282 2.75155C12.7282 2.57735 12.4536 2.41029 11.9648 2.28711C11.4761 2.16393 10.8132 2.09473 10.1219 2.09473C9.43069 2.09473 8.76777 2.16393 8.27899 2.28711C7.79022 2.41029 7.51562 2.57735 7.51562 2.75155Z" fill="#FFF48C"/>
<path opacity="0.15" d="M3.17188 20.2669C3.17188 20.4411 3.90412 20.6082 5.20752 20.7314C6.51092 20.8546 8.27871 20.9238 10.122 20.9238C11.9653 20.9238 13.7331 20.8546 15.0365 20.7314C16.3399 20.6082 17.0721 20.4411 17.0721 20.2669C17.0721 20.0927 16.3399 19.9257 15.0365 19.8025C13.7331 19.6793 11.9653 19.6101 10.122 19.6101C8.27871 19.6101 6.51092 19.6793 5.20752 19.8025C3.90412 19.9257 3.17188 20.0927 3.17188 20.2669V20.2669Z" fill="#45413C"/>
<path d="M1.43457 9.75769C1.43457 12.0804 2.34987 14.3079 3.97912 15.9503C5.60837 17.5927 7.81811 18.5154 10.1222 18.5154C12.4263 18.5154 14.6361 17.5927 16.2653 15.9503C17.8946 14.3079 18.8099 12.0804 18.8099 9.75769C18.8099 7.435 17.8946 5.20745 16.2653 3.56507C14.6361 1.92268 12.4263 1 10.1222 1C7.81811 1 5.60837 1.92268 3.97912 3.56507C2.34987 5.20745 1.43457 7.435 1.43457 9.75769V9.75769Z" stroke="#45413C" stroke-width="0.5" stroke-linecap="round" stroke-linejoin="round"/>
<path d="M6.86426 13.0418C6.86426 13.0418 7.86768 13.9176 10.1221 13.9176C12.3766 13.9176 13.38 13.0418 13.38 13.0418" stroke="#45413C" stroke-width="0.5" stroke-linecap="round" stroke-linejoin="round"/>
<path d="M8.47564 14.5043C8.51362 14.6546 8.59498 14.7902 8.70942 14.8939C8.82386 14.9976 8.96623 15.0647 9.11853 15.0867L9.77879 15.1831C9.82163 15.1894 9.86533 15.1863 9.90687 15.174C9.94841 15.1616 9.9868 15.1404 10.0194 15.1117C10.052 15.083 10.0781 15.0475 10.0958 15.0076C10.1135 14.9678 10.1224 14.9246 10.122 14.8809V13.9176C9.49801 13.9217 8.87612 13.8452 8.27148 13.6899L8.47564 14.5043Z" fill="white" stroke="#45413C" stroke-width="0.5" stroke-linecap="round" stroke-linejoin="round"/>
<path d="M10.1221 13.9176V14.8809C10.1216 14.9246 10.1306 14.9678 10.1483 15.0076C10.166 15.0475 10.192 15.083 10.2246 15.1117C10.2572 15.1404 10.2956 15.1616 10.3372 15.174C10.3787 15.1863 10.4224 15.1894 10.4652 15.1831L11.1255 15.0867C11.2778 15.0647 11.4202 14.9976 11.5346 14.8939C11.6491 14.7902 11.7304 14.6546 11.7684 14.5043L11.9726 13.6899C11.3679 13.8452 10.746 13.9217 10.1221 13.9176V13.9176Z" fill="white" stroke="#45413C" stroke-width="0.5" stroke-linecap="round" stroke-linejoin="round"/>
<path d="M2.95508 9.1009C2.95508 9.97191 3.29832 10.8072 3.90929 11.4231C4.52025 12.039 5.34891 12.385 6.21295 12.385C7.07699 12.385 7.90564 12.039 8.51661 11.4231C9.12758 10.8072 9.47081 9.97191 9.47081 9.1009C9.47081 8.2299 9.12758 7.39457 8.51661 6.77867C7.90564 6.16278 7.07699 5.81677 6.21295 5.81677C5.34891 5.81677 4.52025 6.16278 3.90929 6.77867C3.29832 7.39457 2.95508 8.2299 2.95508 9.1009V9.1009Z" fill="#B89558" stroke="#45413C" stroke-width="0.5" stroke-linecap="round" stroke-linejoin="round"/>
<path d="M3.82324 9.10087C3.82324 9.73961 4.07495 10.3522 4.52299 10.8038C4.97104 11.2555 5.57872 11.5092 6.21235 11.5092C6.84598 11.5092 7.45365 11.2555 7.9017 10.8038C8.34974 10.3522 8.60145 9.73961 8.60145 9.10087C8.60145 8.46213 8.34974 7.84955 7.9017 7.3979C7.45365 6.94624 6.84598 6.6925 6.21235 6.6925C5.57872 6.6925 4.97104 6.94624 4.52299 7.3979C4.07495 7.84955 3.82324 8.46213 3.82324 9.10087Z" fill="#00B8F0"/>
<path d="M6.21299 6.69253C5.73328 6.68943 5.26376 6.83199 4.86554 7.10164C4.46732 7.37128 4.15884 7.75554 3.98028 8.20437C3.80171 8.65321 3.76132 9.14584 3.86436 9.61814C3.9674 10.0904 4.2091 10.5205 4.55799 10.8524L7.95052 7.43255C7.72635 7.19617 7.45655 7.00856 7.15772 6.88129C6.8589 6.75402 6.53738 6.68978 6.21299 6.69253V6.69253Z" fill="#4ACFFF"/>
<path d="M3.82324 9.10087C3.82324 9.73961 4.07495 10.3522 4.52299 10.8038C4.97104 11.2555 5.57872 11.5092 6.21235 11.5092C6.84598 11.5092 7.45365 11.2555 7.9017 10.8038C8.34974 10.3522 8.60145 9.73961 8.60145 9.10087C8.60145 8.46213 8.34974 7.84955 7.9017 7.3979C7.45365 6.94624 6.84598 6.6925 6.21235 6.6925C5.57872 6.6925 4.97104 6.94624 4.52299 7.3979C4.07495 7.84955 3.82324 8.46213 3.82324 9.10087Z" stroke="#45413C" stroke-width="0.5" stroke-linecap="round" stroke-linejoin="round"/>
<path d="M10.7734 9.1009C10.7734 9.97191 11.1167 10.8072 11.7276 11.4231C12.3386 12.039 13.1673 12.385 14.0313 12.385C14.8953 12.385 15.724 12.039 16.335 11.4231C16.9459 10.8072 17.2892 9.97191 17.2892 9.1009C17.2892 8.2299 16.9459 7.39457 16.335 6.77867C15.724 6.16278 14.8953 5.81677 14.0313 5.81677C13.1673 5.81677 12.3386 6.16278 11.7276 6.77867C11.1167 7.39457 10.7734 8.2299 10.7734 9.1009Z" fill="#B89558" stroke="#45413C" stroke-width="0.5" stroke-linecap="round" stroke-linejoin="round"/>
<path d="M11.6426 9.10087C11.6426 9.73961 11.8943 10.3522 12.3423 10.8038C12.7904 11.2555 13.3981 11.5092 14.0317 11.5092C14.6653 11.5092 15.273 11.2555 15.721 10.8038C16.1691 10.3522 16.4208 9.73961 16.4208 9.10087C16.4208 8.46213 16.1691 7.84955 15.721 7.3979C15.273 6.94624 14.6653 6.6925 14.0317 6.6925C13.3981 6.6925 12.7904 6.94624 12.3423 7.3979C11.8943 7.84955 11.6426 8.46213 11.6426 9.10087V9.10087Z" fill="#00B8F0"/>
<path d="M14.0313 6.69253C13.5516 6.68943 13.0821 6.83199 12.6839 7.10164C12.2857 7.37128 11.9772 7.75554 11.7986 8.20437C11.6201 8.65321 11.5797 9.14584 11.6827 9.61814C11.7858 10.0904 12.0275 10.5205 12.3764 10.8524L15.7689 7.43255C15.5447 7.19617 15.2749 7.00856 14.9761 6.88129C14.6773 6.75402 14.3557 6.68978 14.0313 6.69253V6.69253Z" fill="#4ACFFF"/>
<path d="M11.6426 9.10087C11.6426 9.73961 11.8943 10.3522 12.3423 10.8038C12.7904 11.2555 13.3981 11.5092 14.0317 11.5092C14.6653 11.5092 15.273 11.2555 15.721 10.8038C16.1691 10.3522 16.4208 9.73961 16.4208 9.10087C16.4208 8.46213 16.1691 7.84955 15.721 7.3979C15.273 6.94624 14.6653 6.6925 14.0317 6.6925C13.3981 6.6925 12.7904 6.94624 12.3423 7.3979C11.8943 7.84955 11.6426 8.46213 11.6426 9.10087V9.10087Z" stroke="#45413C" stroke-width="0.5" stroke-linecap="round" stroke-linejoin="round"/>
<path d="M17.2891 9.10089H19.2438" stroke="#45413C" stroke-width="0.5" stroke-linecap="round" stroke-linejoin="round"/>
<path d="M2.95472 9.10089H1" stroke="#45413C" stroke-width="0.5" stroke-linecap="round" stroke-linejoin="round"/>
<path d="M10.7739 9.10089H9.4707" stroke="#45413C" stroke-width="0.5" stroke-linecap="round" stroke-linejoin="round"/>
<path d="M10.1221 18.1257C10.8835 17.7248 11.69 17.4175 12.5242 17.2105C12.6359 17.1841 12.7535 17.2034 12.8511 17.2641C12.9488 17.3249 13.0186 17.4221 13.0455 17.5345C13.1959 18.3051 13.1959 19.0979 13.0455 19.8684C13.0342 19.9398 13.0069 20.0077 12.9656 20.0668C12.9243 20.1259 12.8701 20.1746 12.8072 20.2093C12.7442 20.244 12.6743 20.2636 12.6026 20.2668C12.531 20.2699 12.4596 20.2565 12.3939 20.2275C11.6093 19.8959 10.85 19.5066 10.1221 19.0627V18.1257Z" fill="#FF6242" stroke="#45413C" stroke-width="0.5" stroke-linecap="round" stroke-linejoin="round"/>
<path d="M10.1222 18.1257C9.36069 17.7248 8.55421 17.4175 7.72004 17.2105C7.60831 17.1841 7.49079 17.2034 7.39313 17.2641C7.29546 17.3249 7.2256 17.4221 7.19878 17.5345C7.04832 18.3051 7.04832 19.0979 7.19878 19.8684C7.21002 19.9398 7.23734 20.0077 7.27865 20.0668C7.31996 20.1259 7.37416 20.1746 7.43708 20.2093C7.50001 20.244 7.56998 20.2636 7.64162 20.2668C7.71326 20.2699 7.78467 20.2565 7.85035 20.2275C8.63494 19.8959 9.39427 19.5066 10.1222 19.0627V18.1257Z" fill="#FF6242" stroke="#45413C" stroke-width="0.5" stroke-linecap="round" stroke-linejoin="round"/>
<path d="M8.49316 18.7343H11.751" stroke="#45413C" stroke-width="0.5" stroke-linecap="round" stroke-linejoin="round"/>
<path d="M9.6875 17.8586H10.5563V19.6101H9.6875V17.8586Z" fill="#FF6242" stroke="#45413C" stroke-width="0.5" stroke-linecap="round" stroke-linejoin="round"/>
</svg>
