<svg width="17" height="23" viewBox="0 0 17 23" fill="none" xmlns="http://www.w3.org/2000/svg">
<path d="M8.98522 2.13654C10.4169 2.13654 11.7899 2.70899 12.8027 3.72811C13.8155 4.74722 14.3851 6.12962 14.3865 7.57154V14.6665C14.3857 14.7889 14.349 14.9084 14.281 15.0098C14.213 15.1113 14.1167 15.1901 14.0042 15.2365C10.7836 16.5414 7.18682 16.5414 3.96624 15.2365V15.2365C3.85377 15.1901 3.75746 15.1113 3.68943 15.0098C3.62141 14.9084 3.58472 14.7889 3.58398 14.6665V7.57154C3.5853 6.12962 4.15494 4.74722 5.16772 3.72811C6.18051 2.70899 7.55358 2.13654 8.98522 2.13654V2.13654Z" fill="#724F3D"/>
<path d="M8.98522 2.13654C7.55358 2.13654 6.18051 2.70899 5.16772 3.72811C4.15494 4.74722 3.5853 6.12962 3.58398 7.57154V9.07154C3.58398 7.62876 4.15304 6.24507 5.16597 5.22487C6.1789 4.20468 7.55272 3.63154 8.98522 3.63154C10.4177 3.63154 11.7915 4.20468 12.8045 5.22487C13.8174 6.24507 14.3865 7.62876 14.3865 9.07154V7.57154C14.3851 6.12962 13.8155 4.74722 12.8027 3.72811C11.7899 2.70899 10.4169 2.13654 8.98522 2.13654V2.13654Z" fill="#A86C4D"/>
<path d="M8.98522 2.13654C10.4169 2.13654 11.7899 2.70899 12.8027 3.72811C13.8155 4.74722 14.3851 6.12962 14.3865 7.57154V14.6665C14.3857 14.7889 14.349 14.9084 14.281 15.0098C14.213 15.1113 14.1167 15.1901 14.0042 15.2365C10.7836 16.5414 7.18682 16.5414 3.96624 15.2365V15.2365C3.85377 15.1901 3.75746 15.1113 3.68943 15.0098C3.62141 14.9084 3.58472 14.7889 3.58398 14.6665V7.57154C3.5853 6.12962 4.15494 4.74722 5.16772 3.72811C6.18051 2.70899 7.55358 2.13654 8.98522 2.13654V2.13654Z" stroke="#45413C" stroke-width="0.5" stroke-linecap="round" stroke-linejoin="round"/>
<path d="M13.4829 8.71153C12.8583 8.53262 12.2814 8.21525 11.7944 7.78268C11.3073 7.35011 10.9225 6.81329 10.6681 6.21153L10.3604 5.44653C9.16354 7.07133 7.39737 8.17618 5.4208 8.53653L4.48254 8.70653C4.24423 8.70653 4.01568 8.80188 3.84716 8.9716C3.67865 9.14132 3.58398 9.37151 3.58398 9.61153C3.58398 9.85155 3.67865 10.0817 3.84716 10.2515C4.01568 10.4212 4.24423 10.5165 4.48254 10.5165H4.54211C4.65827 11.6218 5.17645 12.6447 5.99681 13.3881C6.81718 14.1315 7.88168 14.5429 8.98522 14.5429C10.0888 14.5429 11.1533 14.1315 11.9736 13.3881C12.794 12.6447 13.3122 11.6218 13.4283 10.5165H13.4829C13.7213 10.5165 13.9498 10.4212 14.1183 10.2515C14.2868 10.0817 14.3815 9.85155 14.3815 9.61153C14.3815 9.37151 14.2868 9.14132 14.1183 8.9716C13.9498 8.80188 13.7213 8.70653 13.4829 8.70653V8.71153Z" fill="#FFE500" stroke="#45413C" stroke-width="0.5" stroke-linecap="round" stroke-linejoin="round"/>
<path d="M6.2891 9.44656C6.2891 9.5227 6.31151 9.59714 6.35352 9.66045C6.39552 9.72376 6.45522 9.77311 6.52507 9.80225C6.59492 9.83139 6.67178 9.83901 6.74593 9.82416C6.82008 9.8093 6.88819 9.77264 6.94165 9.71879C6.99511 9.66495 7.03151 9.59635 7.04626 9.52167C7.06101 9.44698 7.05344 9.36957 7.02451 9.29922C6.99558 9.22887 6.94658 9.16875 6.88372 9.12644C6.82086 9.08414 6.74696 9.06156 6.67135 9.06156C6.62097 9.06088 6.57096 9.07038 6.52428 9.08949C6.4776 9.1086 6.4352 9.13694 6.39957 9.17282C6.36394 9.20871 6.33581 9.25142 6.31683 9.29843C6.29786 9.34545 6.28843 9.39581 6.2891 9.44656V9.44656Z" fill="#45413C" stroke="#45413C" stroke-width="0.5" stroke-linecap="round" stroke-linejoin="round"/>
<path d="M11.6805 9.44656C11.6805 9.5227 11.6581 9.59714 11.6161 9.66045C11.5741 9.72376 11.5144 9.77311 11.4446 9.80225C11.3747 9.83139 11.2978 9.83901 11.2237 9.82416C11.1495 9.8093 11.0814 9.77264 11.028 9.71879C10.9745 9.66495 10.9381 9.59635 10.9234 9.52167C10.9086 9.44698 10.9162 9.36957 10.9451 9.29922C10.974 9.22887 11.023 9.16875 11.0859 9.12644C11.1488 9.08414 11.2227 9.06156 11.2983 9.06156C11.3487 9.06088 11.3987 9.07038 11.4453 9.08949C11.492 9.1086 11.5344 9.13694 11.5701 9.17282C11.6057 9.20871 11.6338 9.25142 11.6528 9.29843C11.6718 9.34545 11.6812 9.39581 11.6805 9.44656V9.44656Z" fill="#45413C" stroke="#45413C" stroke-width="0.5" stroke-linecap="round" stroke-linejoin="round"/>
<path d="M7.57487 11.7766C7.54346 11.7772 7.51256 11.7847 7.48429 11.7985C7.45601 11.8123 7.43103 11.8321 7.41104 11.8566C7.39027 11.8801 7.37501 11.9081 7.36642 11.9384C7.35783 11.9686 7.35611 12.0005 7.3614 12.0316C7.42843 12.4162 7.62794 12.7647 7.92485 13.0158C8.22175 13.2669 8.59704 13.4045 8.98475 13.4045C9.37245 13.4045 9.74775 13.2669 10.0447 13.0158C10.3416 12.7647 10.5411 12.4162 10.6081 12.0316C10.6134 12.0005 10.6117 11.9686 10.6031 11.9384C10.5945 11.9081 10.5792 11.8801 10.5585 11.8566C10.5389 11.8316 10.514 11.8114 10.4857 11.7976C10.4573 11.7837 10.4262 11.7765 10.3946 11.7766H7.57487Z" fill="#FF6242"/>
<path d="M8.9854 12.4465C8.53718 12.4289 8.09624 12.5646 7.73438 12.8315C7.89081 13.007 8.08216 13.1473 8.29599 13.2434C8.50982 13.3394 8.74133 13.3891 8.97547 13.3891C9.2096 13.3891 9.44112 13.3394 9.65494 13.2434C9.86877 13.1473 10.0601 13.007 10.2166 12.8315C9.8601 12.5689 9.42688 12.4334 8.9854 12.4465Z" fill="#FFA694"/>
<path d="M7.57487 11.7766C7.54346 11.7772 7.51256 11.7847 7.48429 11.7985C7.45601 11.8123 7.43103 11.8321 7.41104 11.8566C7.39027 11.8801 7.37501 11.9081 7.36642 11.9384C7.35783 11.9686 7.35611 12.0005 7.3614 12.0316C7.42843 12.4162 7.62794 12.7647 7.92485 13.0158C8.22175 13.2669 8.59704 13.4045 8.98475 13.4045C9.37245 13.4045 9.74775 13.2669 10.0447 13.0158C10.3416 12.7647 10.5411 12.4162 10.6081 12.0316C10.6134 12.0005 10.6117 11.9686 10.6031 11.9384C10.5945 11.9081 10.5792 11.8801 10.5585 11.8566C10.5389 11.8316 10.514 11.8114 10.4857 11.7976C10.4573 11.7837 10.4262 11.7765 10.3946 11.7766H7.57487Z" stroke="#45413C" stroke-width="0.5" stroke-linecap="round" stroke-linejoin="round"/>
<path d="M5.54004 11.0715C5.54004 11.1511 5.59234 11.2274 5.68544 11.2837C5.77854 11.3399 5.90481 11.3715 6.03648 11.3715C6.16814 11.3715 6.29441 11.3399 6.38751 11.2837C6.48061 11.2274 6.53291 11.1511 6.53291 11.0715C6.53291 10.992 6.48061 10.9157 6.38751 10.8594C6.29441 10.8032 6.16814 10.7715 6.03648 10.7715C5.90481 10.7715 5.77854 10.8032 5.68544 10.8594C5.59234 10.9157 5.54004 10.992 5.54004 11.0715V11.0715Z" fill="#FFAA54"/>
<path d="M11.4375 11.0715C11.4375 11.1511 11.4898 11.2274 11.5829 11.2837C11.676 11.3399 11.8023 11.3715 11.9339 11.3715C12.0656 11.3715 12.1919 11.3399 12.285 11.2837C12.3781 11.2274 12.4304 11.1511 12.4304 11.0715C12.4304 10.992 12.3781 10.9157 12.285 10.8594C12.1919 10.8032 12.0656 10.7715 11.9339 10.7715C11.8023 10.7715 11.676 10.8032 11.5829 10.8594C11.4898 10.9157 11.4375 10.992 11.4375 11.0715V11.0715Z" fill="#FFAA54"/>
<path d="M5.34594 4.29654C5.44193 4.22868 5.51368 4.13151 5.55057 4.01939C5.58747 3.90727 5.58754 3.78617 5.55079 3.674C5.51404 3.56184 5.44242 3.46457 5.34651 3.39659C5.25061 3.32861 5.13553 3.29353 5.01829 3.29654H4.62611C4.60612 3.29738 4.58618 3.29386 4.56767 3.28622C4.54915 3.27859 4.53249 3.26702 4.51882 3.2523C4.50515 3.23759 4.4948 3.22007 4.48847 3.20096C4.48214 3.18184 4.47998 3.16157 4.48214 3.14154L4.59632 1.98654C4.61746 1.82086 4.59108 1.65255 4.52028 1.5015C4.44949 1.35044 4.33724 1.22295 4.19681 1.13409C4.05637 1.04523 3.89362 0.998707 3.72777 1.00003C3.56193 1.00135 3.39993 1.05045 3.26091 1.14154C3.05346 1.30408 2.79314 1.38255 2.53114 1.36154C2.37632 1.34466 2.22082 1.38655 2.09504 1.47902C1.96926 1.57149 1.88225 1.70789 1.85102 1.86154C1.55485 3.28451 1.43315 4.73871 1.48862 6.19154L3.90131 6.36654L3.96088 5.33154L5.34594 4.29654Z" fill="#FFE500"/>
<path d="M2.30804 2.32155C2.60268 2.35331 2.8988 2.27697 3.14206 2.10655C3.25548 2.03115 3.38307 1.98 3.51692 1.95628C3.65077 1.93255 3.78803 1.93676 3.9202 1.96863C4.05237 2.00051 4.17664 2.05937 4.2853 2.14158C4.39397 2.22378 4.48472 2.32759 4.55194 2.44655L4.59662 2.00155C4.61776 1.83588 4.59138 1.66757 4.52058 1.51651C4.44979 1.36545 4.33754 1.23796 4.19711 1.1491C4.05667 1.06024 3.89392 1.01372 3.72807 1.01504C3.56223 1.01636 3.40023 1.06547 3.2612 1.15655C3.05165 1.31376 2.79153 1.38683 2.53144 1.36155C2.37662 1.34468 2.22112 1.38657 2.09534 1.47904C1.96956 1.5715 1.88255 1.7079 1.85132 1.86155C1.81161 2.07655 1.78182 2.28655 1.74707 2.49655C1.82277 2.42876 1.91199 2.37808 2.00875 2.34789C2.10551 2.31771 2.20756 2.30873 2.30804 2.32155V2.32155Z" fill="#FFF48C"/>
<path d="M5.34594 4.29654C5.44193 4.22868 5.51368 4.13151 5.55057 4.01939C5.58747 3.90727 5.58754 3.78617 5.55079 3.674C5.51404 3.56184 5.44242 3.46457 5.34651 3.39659C5.25061 3.32861 5.13553 3.29353 5.01829 3.29654H4.62611C4.60612 3.29738 4.58618 3.29386 4.56767 3.28622C4.54915 3.27859 4.53249 3.26702 4.51882 3.2523C4.50515 3.23759 4.4948 3.22007 4.48847 3.20096C4.48214 3.18184 4.47998 3.16157 4.48214 3.14154L4.59632 1.98654C4.61746 1.82086 4.59108 1.65255 4.52028 1.5015C4.44949 1.35044 4.33724 1.22295 4.19681 1.13409C4.05637 1.04523 3.89362 0.998707 3.72777 1.00003C3.56193 1.00135 3.39993 1.05045 3.26091 1.14154C3.05346 1.30408 2.79314 1.38255 2.53114 1.36154C2.37632 1.34466 2.22082 1.38655 2.09504 1.47902C1.96926 1.57149 1.88225 1.70789 1.85102 1.86154C1.55485 3.28451 1.43315 4.73871 1.48862 6.19154L3.90131 6.36654L3.96088 5.33154L5.34594 4.29654Z" stroke="#45413C" stroke-width="0.5" stroke-linecap="round" stroke-linejoin="round"/>
<path opacity="0.15" d="M1.53906 21.6965C1.53906 21.8954 2.32361 22.0862 3.72011 22.2269C5.11661 22.3675 7.01067 22.4465 8.98562 22.4465C10.9606 22.4465 12.8546 22.3675 14.2511 22.2269C15.6476 22.0862 16.4322 21.8954 16.4322 21.6965C16.4322 21.4976 15.6476 21.3069 14.2511 21.1662C12.8546 21.0256 10.9606 20.9465 8.98562 20.9465C7.01067 20.9465 5.11661 21.0256 3.72011 21.1662C2.32361 21.3069 1.53906 21.4976 1.53906 21.6965V21.6965Z" fill="#45413C"/>
<path d="M9.05949 14.5565C8.35248 14.5461 7.64944 14.6647 6.98438 14.9065C6.76423 14.9921 6.52904 15.0315 6.29323 15.0223C6.05743 15.0131 5.82598 14.9554 5.61308 14.8529C5.40019 14.7503 5.21033 14.6051 5.05516 14.426C4.89999 14.247 4.78277 14.0379 4.7107 13.8115C3.96662 11.2814 3.76858 8.62014 4.12987 6.00653H1.12146C0.959514 8.30364 0.959514 10.6094 1.12146 12.9065C1.30962 15.8443 1.98066 18.7301 3.10721 21.4465H14.8827V20.6915C14.9005 19.1054 14.301 17.5752 13.2127 16.4286C12.1243 15.282 10.6336 14.61 9.05949 14.5565V14.5565Z" fill="#FF87AF"/>
<path d="M9.059 14.5565C8.35199 14.5461 7.64895 14.6647 6.98389 14.9065C6.76374 14.9921 6.52855 15.0315 6.29274 15.0223C6.05693 15.013 5.82549 14.9554 5.61259 14.8529C5.39969 14.7503 5.20984 14.6051 5.05466 14.426C4.89949 14.2469 4.78228 14.0378 4.71021 13.8115C4.27114 12.386 4.02239 10.9081 3.97052 9.4165C3.87361 11.4543 4.12379 13.4937 4.71021 15.4465C4.78207 15.6746 4.89977 15.8854 5.05597 16.0658C5.21218 16.2462 5.40356 16.3923 5.61821 16.495C5.83285 16.5977 6.06618 16.6548 6.30369 16.6628C6.54119 16.6708 6.7778 16.6295 6.99878 16.5415C7.66384 16.2997 8.36688 16.1811 9.07389 16.1915C10.4946 16.2389 11.8523 16.7935 12.9044 17.7561C13.9566 18.7187 14.6347 20.0267 14.8177 21.4465H14.8822V20.6915C14.9 19.1053 14.3005 17.5752 13.2122 16.4285C12.1238 15.2819 10.6331 14.61 9.059 14.5565V14.5565Z" fill="#FF6196"/>
<path d="M9.05949 14.5565C8.35248 14.5461 7.64944 14.6647 6.98438 14.9065C6.76423 14.9921 6.52904 15.0315 6.29323 15.0223C6.05743 15.0131 5.82598 14.9554 5.61308 14.8529C5.40019 14.7503 5.21033 14.6051 5.05516 14.426C4.89999 14.247 4.78277 14.0379 4.7107 13.8115C3.96662 11.2814 3.76858 8.62014 4.12987 6.00653H1.12146C0.959514 8.30364 0.959514 10.6094 1.12146 12.9065C1.30962 15.8443 1.98066 18.7301 3.10721 21.4465H14.8827V20.6915C14.9005 19.1054 14.301 17.5752 13.2127 16.4286C12.1243 15.282 10.6336 14.61 9.05949 14.5565V14.5565Z" stroke="#45413C" stroke-width="0.5" stroke-linecap="round" stroke-linejoin="round"/>
<path d="M8.98556 14.3765C8.55856 14.3768 8.13378 14.3145 7.72461 14.1915V15.2615C7.72461 15.5984 7.85746 15.9214 8.09393 16.1596C8.33041 16.3977 8.65114 16.5315 8.98556 16.5315C9.31998 16.5315 9.64071 16.3977 9.87719 16.1596C10.1137 15.9214 10.2465 15.5984 10.2465 15.2615V14.1915C9.83734 14.3145 9.41256 14.3768 8.98556 14.3765V14.3765Z" fill="#FFE500"/>
<path d="M8.98556 14.3765C8.55856 14.3768 8.13378 14.3145 7.72461 14.1915C7.72461 14.5284 7.85746 14.8514 8.09393 15.0896C8.33041 15.3277 8.65114 15.4615 8.98556 15.4615C9.31998 15.4615 9.64071 15.3277 9.87719 15.0896C10.1137 14.8514 10.2465 14.5284 10.2465 14.1915C9.83734 14.3145 9.41256 14.3768 8.98556 14.3765V14.3765Z" fill="#EBCB00"/>
<path d="M8.98556 14.3765C8.55856 14.3768 8.13378 14.3145 7.72461 14.1915V15.2615C7.72461 15.5984 7.85746 15.9214 8.09393 16.1596C8.33041 16.3977 8.65114 16.5315 8.98556 16.5315C9.31998 16.5315 9.64071 16.3977 9.87719 16.1596C10.1137 15.9214 10.2465 15.5984 10.2465 15.2615V14.1915C9.83734 14.3145 9.41256 14.3768 8.98556 14.3765V14.3765Z" stroke="#45413C" stroke-width="0.5" stroke-linecap="round" stroke-linejoin="round"/>
</svg>
