<svg width="26" height="30" viewBox="0 0 26 30" fill="none" xmlns="http://www.w3.org/2000/svg">
<g clip-path="url(#clip0_1578_2921)" filter="url(#filter0_d_1578_2921)">
<path d="M7.414 16L17.556 5.85796L16.142 4.44396L6 14.586V16H7.414ZM8.243 18H4V13.757L15.435 2.32196C15.6225 2.13449 15.8768 2.02917 16.142 2.02917C16.4072 2.02917 16.6615 2.13449 16.849 2.32196L19.678 5.15096C19.8655 5.33849 19.9708 5.5928 19.9708 5.85796C19.9708 6.12313 19.8655 6.37743 19.678 6.56496L8.243 18V18ZM4 20H22V22H4V20Z" fill="black"/>
</g>
<defs>
<filter id="filter0_d_1578_2921" x="-3" y="0" width="32" height="32" filterUnits="userSpaceOnUse" color-interpolation-filters="sRGB">
<feFlood flood-opacity="0" result="BackgroundImageFix"/>
<feColorMatrix in="SourceAlpha" type="matrix" values="0 0 0 0 0 0 0 0 0 0 0 0 0 0 0 0 0 0 127 0" result="hardAlpha"/>
<feOffset dy="4"/>
<feGaussianBlur stdDeviation="2"/>
<feComposite in2="hardAlpha" operator="out"/>
<feColorMatrix type="matrix" values="0 0 0 0 0 0 0 0 0 0 0 0 0 0 0 0 0 0 0.25 0"/>
<feBlend mode="normal" in2="BackgroundImageFix" result="effect1_dropShadow_1578_2921"/>
<feBlend mode="normal" in="SourceGraphic" in2="effect1_dropShadow_1578_2921" result="shape"/>
</filter>
<clipPath id="clip0_1578_2921">
<rect width="24" height="24" fill="white" transform="translate(1)"/>
</clipPath>
</defs>
</svg>
