<svg width="21" height="24" viewBox="0 0 21 24" fill="none" xmlns="http://www.w3.org/2000/svg">
<path d="M15.971 16.2174C12.7495 17.5175 9.15451 17.5175 5.93304 16.2174V16.2174C5.82057 16.171 5.72426 16.0921 5.65623 15.9907C5.58821 15.8892 5.55151 15.7698 5.55078 15.6474V8.55237C5.55078 7.10959 6.11984 5.7259 7.13277 4.7057C8.14569 3.68551 9.51952 3.11237 10.952 3.11237V3.11237C11.6613 3.11237 12.3637 3.25308 13.019 3.52646C13.6743 3.79985 14.2697 4.20055 14.7713 4.7057C15.2728 5.21086 15.6707 5.81056 15.9421 6.47057C16.2135 7.13058 16.3533 7.83797 16.3533 8.55237V15.6474C16.3532 15.7699 16.3168 15.8897 16.2486 15.9912C16.1805 16.0928 16.0838 16.1715 15.971 16.2174Z" fill="#724F3D" stroke="#45413C" stroke-width="0.5" stroke-linecap="round" stroke-linejoin="round"/>
<path opacity="0.15" d="M2.18457 22.6974C2.18457 22.8963 3.07372 23.0871 4.65642 23.2277C6.23912 23.3684 8.38572 23.4474 10.624 23.4474C12.8623 23.4474 15.0089 23.3684 16.5916 23.2277C18.1743 23.0871 19.0634 22.8963 19.0634 22.6974C19.0634 22.4985 18.1743 22.3077 16.5916 22.1671C15.0089 22.0264 12.8623 21.9474 10.624 21.9474C8.38572 21.9474 6.23912 22.0264 4.65642 22.1671C3.07372 22.3077 2.18457 22.4985 2.18457 22.6974V22.6974Z" fill="#45413C"/>
<path d="M10.9514 15.5574C12.5155 15.5574 14.0156 16.1832 15.1217 17.2972C16.2277 18.4111 16.8491 19.922 16.8491 21.4974V22.4474H5.05371V21.4974C5.05371 19.922 5.67507 18.4111 6.7811 17.2972C7.88713 16.1832 9.38722 15.5574 10.9514 15.5574V15.5574Z" fill="white"/>
<path d="M10.9514 15.5574C9.38722 15.5574 7.88713 16.1832 6.7811 17.2972C5.67507 18.4111 5.05371 19.922 5.05371 21.4974V22.4474H5.10832C5.30185 21.025 6.00032 19.7213 7.07452 18.7776C8.14871 17.8338 9.52593 17.3138 10.9514 17.3138C12.3768 17.3138 13.7541 17.8338 14.8283 18.7776C15.9024 19.7213 16.6009 21.025 16.7944 22.4474H16.8491V21.4974C16.8491 19.922 16.2277 18.4111 15.1217 17.2972C14.0156 16.1832 12.5155 15.5574 10.9514 15.5574Z" fill="#F0F0F0"/>
<path d="M10.9514 15.5574C12.5155 15.5574 14.0156 16.1832 15.1217 17.2972C16.2277 18.4111 16.8491 19.922 16.8491 21.4974V22.4474H5.05371V21.4974C5.05371 19.922 5.67507 18.4111 6.7811 17.2972C7.88713 16.1832 9.38722 15.5574 10.9514 15.5574V15.5574Z" stroke="#45413C" stroke-width="0.5" stroke-linecap="round" stroke-linejoin="round"/>
<path d="M8.61328 16.7724C8.61328 17.2418 8.85963 17.692 9.29813 18.024C9.73663 18.3559 10.3314 18.5424 10.9515 18.5424C11.5716 18.5424 12.1664 18.3559 12.6049 18.024C13.0434 17.692 13.2897 17.2418 13.2897 16.7724C13.2897 16.3029 13.0434 15.8527 12.6049 15.5208C12.1664 15.1889 11.5716 15.0024 10.9515 15.0024C10.3314 15.0024 9.73663 15.1889 9.29813 15.5208C8.85963 15.8527 8.61328 16.3029 8.61328 16.7724V16.7724Z" fill="#00DBA8"/>
<path d="M10.9517 15.0024C10.5 14.972 10.0491 15.0733 9.65299 15.2941C9.25684 15.5148 8.93218 15.8458 8.71777 16.2474C8.93101 16.6504 9.25528 16.9827 9.65159 17.2045C10.0479 17.4262 10.4994 17.5279 10.9517 17.4974C11.4041 17.5279 11.8556 17.4262 12.2519 17.2045C12.6482 16.9827 12.9725 16.6504 13.1857 16.2474C12.9713 15.8458 12.6466 15.5148 12.2505 15.2941C11.8544 15.0733 11.4035 14.972 10.9517 15.0024V15.0024Z" fill="#00AD85"/>
<path d="M8.61328 16.7724C8.61328 17.2418 8.85963 17.692 9.29813 18.024C9.73663 18.3559 10.3314 18.5424 10.9515 18.5424C11.5716 18.5424 12.1664 18.3559 12.6049 18.024C13.0434 17.692 13.2897 17.2418 13.2897 16.7724C13.2897 16.3029 13.0434 15.8527 12.6049 15.5208C12.1664 15.1889 11.5716 15.0024 10.9515 15.0024C10.3314 15.0024 9.73663 15.1889 9.29813 15.5208C8.85963 15.8527 8.61328 16.3029 8.61328 16.7724V16.7724Z" stroke="#45413C" stroke-width="0.5" stroke-linecap="round" stroke-linejoin="round"/>
<path d="M10.9514 13.5274C10.7854 13.5274 10.621 13.5604 10.4677 13.6246C10.3144 13.6887 10.1752 13.7827 10.058 13.9011C9.94085 14.0196 9.84807 14.1602 9.785 14.3149C9.72192 14.4695 9.68979 14.6352 9.69044 14.8024V16.2224C9.69044 16.5592 9.82329 16.8823 10.0598 17.1204C10.2962 17.3586 10.617 17.4924 10.9514 17.4924C11.2858 17.4924 11.6065 17.3586 11.843 17.1204C12.0795 16.8823 12.2123 16.5592 12.2123 16.2224V14.8024C12.213 14.6352 12.1809 14.4695 12.1178 14.3149C12.0547 14.1602 11.9619 14.0196 11.8448 13.9011C11.7276 13.7827 11.5884 13.6887 11.4351 13.6246C11.2818 13.5604 11.1174 13.5274 10.9514 13.5274V13.5274Z" fill="#FFE500"/>
<path d="M10.9514 13.5274C10.617 13.5274 10.2962 13.6612 10.0598 13.8994C9.82328 14.1375 9.69043 14.4606 9.69043 14.7974V15.0974C9.69043 15.4342 9.82328 15.7573 10.0598 15.9954C10.2962 16.2336 10.617 16.3674 10.9514 16.3674C11.2858 16.3674 11.6065 16.2336 11.843 15.9954C12.0795 15.7573 12.2123 15.4342 12.2123 15.0974V14.8024C12.213 14.6352 12.1809 14.4695 12.1178 14.3149C12.0547 14.1602 11.9619 14.0196 11.8448 13.9011C11.7276 13.7827 11.5884 13.6887 11.4351 13.6246C11.2818 13.5604 11.1174 13.5274 10.9514 13.5274V13.5274Z" fill="#EBCB00"/>
<path d="M10.9514 13.5274C10.7854 13.5274 10.621 13.5604 10.4677 13.6246C10.3144 13.6887 10.1752 13.7827 10.058 13.9011C9.94085 14.0196 9.84807 14.1602 9.785 14.3149C9.72192 14.4695 9.68979 14.6352 9.69044 14.8024V16.2224C9.69044 16.5592 9.82329 16.8823 10.0598 17.1204C10.2962 17.3586 10.617 17.4924 10.9514 17.4924C11.2858 17.4924 11.6065 17.3586 11.843 17.1204C12.0795 16.8823 12.2123 16.5592 12.2123 16.2224V14.8024C12.213 14.6352 12.1809 14.4695 12.1178 14.3149C12.0547 14.1602 11.9619 14.0196 11.8448 13.9011C11.7276 13.7827 11.5884 13.6887 11.4351 13.6246C11.2818 13.5604 11.1174 13.5274 10.9514 13.5274V13.5274Z" stroke="#45413C" stroke-width="0.5" stroke-linecap="round" stroke-linejoin="round"/>
<path d="M7.50586 22.4474V21.2424" stroke="#45413C" stroke-width="0.5" stroke-linecap="round" stroke-linejoin="round"/>
<path d="M14.3965 22.4474V21.2374" stroke="#45413C" stroke-width="0.5" stroke-linecap="round" stroke-linejoin="round"/>
<path d="M11.9946 18.4874C12.2421 18.8267 12.5895 19.0786 12.9875 19.2074C13.6329 19.3874 14.0499 19.1174 14.3279 19.2924C13.9208 18.1624 12.9577 17.5774 12.3421 17.8624C11.7265 18.1474 11.9946 18.4874 11.9946 18.4874Z" fill="#00DBA8" stroke="#45413C" stroke-width="0.5" stroke-linecap="round" stroke-linejoin="round"/>
<path d="M11.4478 18.5074C11.2342 18.9548 11.1664 19.4588 11.2542 19.9474C11.4329 20.7124 11.9343 20.9924 11.9144 21.3774C12.8378 20.3274 12.9073 19.0074 12.2619 18.5274C11.6166 18.0474 11.4478 18.5074 11.4478 18.5074Z" fill="#00DBA8" stroke="#45413C" stroke-width="0.5" stroke-linecap="round" stroke-linejoin="round"/>
<path d="M10.9512 17.4974C11.1274 17.5866 11.269 17.7327 11.3533 17.9124C11.4144 18.1048 11.4462 18.3054 11.4476 18.5074C11.5923 18.5717 11.7487 18.6049 11.9068 18.6049C12.065 18.6049 12.2214 18.5717 12.366 18.5074C12.4681 18.4416 12.5556 18.3553 12.6232 18.254C12.6908 18.1527 12.737 18.0385 12.7588 17.9184C12.7807 17.7984 12.7779 17.6751 12.7504 17.5562C12.723 17.4373 12.6716 17.3254 12.5993 17.2274C12.2618 16.7874 11.532 16.6874 10.9512 17.4974Z" fill="#00DBA8" stroke="#45413C" stroke-width="0.5" stroke-linecap="round" stroke-linejoin="round"/>
<path d="M2.63598 22.4474C2.63598 22.4474 -0.665325 18.6574 2.17926 18.2224C5.26213 17.7574 8.63294 22.4474 8.63294 22.4474H2.63598Z" fill="#DEBB7E"/>
<path d="M2.17945 19.6474C4.12549 19.3524 6.17577 21.1074 7.42679 22.4474H8.61328C8.61328 22.4474 5.26233 17.7574 2.1596 18.2224C0.898646 18.4174 0.844038 19.2624 1.16672 20.1524C1.28951 19.9998 1.44356 19.8756 1.61834 19.7885C1.79311 19.7013 1.98451 19.6532 2.17945 19.6474V19.6474Z" fill="#F0D5A8"/>
<path d="M2.63598 22.4474C2.63598 22.4474 -0.665325 18.6574 2.17926 18.2224C5.26213 17.7574 8.63294 22.4474 8.63294 22.4474H2.63598Z" stroke="#45413C" stroke-width="0.5" stroke-linecap="round" stroke-linejoin="round"/>
<path d="M3.25033 19.9805C3.34168 20.0448 3.43869 20.0991 3.53581 20.1402C3.63294 20.1814 3.72828 20.2085 3.81639 20.2202C3.9045 20.2318 3.98366 20.2277 4.04934 20.2081C4.11502 20.1885 4.16594 20.1537 4.1992 20.1058C4.23245 20.058 4.24739 19.9979 4.24316 19.929C4.23892 19.8601 4.2156 19.7838 4.17451 19.7045C4.13343 19.6251 4.0754 19.5442 4.00373 19.4664C3.93205 19.3887 3.84815 19.3155 3.75679 19.2511C3.66544 19.1868 3.56843 19.1325 3.47131 19.0914C3.37418 19.0502 3.27884 19.0231 3.19073 19.0114C3.10262 18.9998 3.02346 19.0039 2.95778 19.0235C2.8921 19.0431 2.84118 19.0779 2.80792 19.1258C2.77467 19.1736 2.75973 19.2337 2.76396 19.3026C2.7682 19.3715 2.79152 19.4478 2.83261 19.5271C2.87369 19.6065 2.93172 19.6874 3.00339 19.7652C3.07507 19.843 3.15898 19.9161 3.25033 19.9805V19.9805Z" fill="#FF6242" stroke="#45413C" stroke-width="0.5" stroke-linecap="round" stroke-linejoin="round"/>
<path d="M5.54427 21.2037C5.72877 21.3337 5.93238 21.4199 6.11033 21.4434C6.28828 21.4669 6.42598 21.4258 6.49314 21.3291C6.56031 21.2324 6.55143 21.088 6.46846 20.9277C6.38549 20.7674 6.23523 20.6044 6.05074 20.4744C5.86624 20.3444 5.66262 20.2582 5.48468 20.2347C5.30673 20.2112 5.16903 20.2523 5.10187 20.349C5.0347 20.4457 5.04358 20.5901 5.12655 20.7504C5.20952 20.9107 5.35978 21.0738 5.54427 21.2037Z" fill="#FFE500" stroke="#45413C" stroke-width="0.5" stroke-linecap="round" stroke-linejoin="round"/>
<path d="M18.4175 18.1174L17.375 17.8574L18.0948 14.3874L19.3806 14.7074L18.4175 18.1174Z" fill="#DAEDF7" stroke="#45413C" stroke-width="0.5" stroke-linecap="round" stroke-linejoin="round"/>
<path d="M17.374 17.8547L18.4202 18.1137L17.4425 22.1195L16.3964 21.8605L17.374 17.8547Z" fill="#BF8256" stroke="#45413C" stroke-width="0.5" stroke-linecap="round" stroke-linejoin="round"/>
<path d="M18.0953 14.3874C17.7726 13.7674 18.1846 13.0074 18.6563 12.6174C18.9567 12.3856 19.1758 12.0633 19.2818 11.6974C19.576 11.9035 19.8041 12.1917 19.9382 12.5265C20.0722 12.8614 20.1063 13.2283 20.0363 13.5824C20.0078 13.8035 19.9361 14.0168 19.8253 14.2098C19.7145 14.4029 19.5669 14.572 19.391 14.7074L18.0953 14.3874Z" fill="#FFF5E3" stroke="#45413C" stroke-width="0.5" stroke-linecap="round" stroke-linejoin="round"/>
<path d="M18.2637 13.0524C18.5182 13.1994 18.7924 13.3089 19.0778 13.3774C19.4021 13.4594 19.7374 13.4881 20.0707 13.4624C20.112 13.1246 20.0613 12.7819 19.924 12.471C19.7867 12.1601 19.568 11.8927 19.2913 11.6974C19.1854 12.0633 18.9662 12.3856 18.6658 12.6174C18.5105 12.7409 18.3749 12.8876 18.2637 13.0524Z" fill="#FF6242" stroke="#45413C" stroke-width="0.5" stroke-linecap="round" stroke-linejoin="round"/>
<path d="M16.4803 18.0852C16.677 18.1342 16.8463 18.2599 16.9509 18.4346C17.0556 18.6093 17.0871 18.8188 17.0384 19.0169L16.2365 22.2809C15.9377 22.2064 15.6805 22.0154 15.5214 21.75C15.3624 21.4845 15.3146 21.1662 15.3885 20.8652L16.0045 18.3578C16.0295 18.2561 16.0935 18.1687 16.1825 18.1146C16.2715 18.0605 16.3782 18.0443 16.4791 18.0694L16.4803 18.0852Z" fill="#FFE500"/>
<path d="M16.5217 18.0824C16.4702 18.0658 16.4158 18.0603 16.3621 18.0662C16.3083 18.0721 16.2564 18.0892 16.2096 18.1165C16.1629 18.1439 16.1223 18.1807 16.0905 18.2248C16.0588 18.2689 16.0365 18.3191 16.0252 18.3724L15.7969 19.3024C15.8089 19.2495 15.8315 19.1997 15.8634 19.156C15.8954 19.1124 15.9359 19.0758 15.9825 19.0486C16.029 19.0214 16.0807 19.0041 16.1341 18.9979C16.1876 18.9917 16.2418 18.9966 16.2933 19.0124C16.3916 19.0358 16.4843 19.0787 16.5659 19.1386C16.6476 19.1985 16.7165 19.2742 16.7687 19.3612C16.821 19.4483 16.8554 19.545 16.8701 19.6456C16.8848 19.7463 16.8794 19.8489 16.8543 19.9474L17.0826 19.0174C17.1071 18.9189 17.112 18.8165 17.097 18.7161C17.082 18.6157 17.0474 18.5192 16.9953 18.4323C16.9432 18.3454 16.8745 18.2698 16.7932 18.2097C16.7119 18.1497 16.6196 18.1064 16.5217 18.0824Z" fill="#FFF48C"/>
<path d="M16.4803 18.0852C16.677 18.1342 16.8463 18.2599 16.9509 18.4346C17.0556 18.6093 17.0871 18.8188 17.0384 19.0169L16.2365 22.2809C15.9377 22.2064 15.6805 22.0154 15.5214 21.75C15.3624 21.4845 15.3146 21.1662 15.3885 20.8652L16.0045 18.3578C16.0295 18.2561 16.0935 18.1687 16.1825 18.1146C16.2715 18.0605 16.3782 18.0443 16.4791 18.0694L16.4803 18.0852Z" stroke="#45413C" stroke-width="0.499625" stroke-linecap="round" stroke-linejoin="round"/>
<path d="M18.3487 19.2424L17.4054 19.0024C17.2603 18.9656 17.1066 18.9877 16.9774 19.0639C16.8483 19.1401 16.754 19.2644 16.715 19.41C16.6759 19.5555 16.6952 19.7107 16.7686 19.8421C16.842 19.9734 16.9638 20.0705 17.1076 20.1124C16.9652 20.0926 16.8207 20.1276 16.7029 20.2104C16.585 20.2932 16.5025 20.4177 16.4718 20.5591C16.4411 20.7005 16.4645 20.8483 16.5372 20.9731C16.61 21.0979 16.7268 21.1905 16.8643 21.2324C16.7913 21.2143 16.7155 21.2109 16.6411 21.2224C16.5668 21.2338 16.4955 21.2599 16.4312 21.2992C16.3669 21.3384 16.3109 21.39 16.2664 21.451C16.2219 21.5121 16.1897 21.5813 16.1718 21.6549C16.1539 21.7284 16.1505 21.8048 16.1619 21.8796C16.1732 21.9545 16.1992 22.0264 16.2381 22.0911C16.2771 22.1559 16.3283 22.2123 16.3889 22.2571C16.4495 22.302 16.5183 22.3343 16.5913 22.3524L17.5494 22.5874C17.8292 22.6568 18.1249 22.6116 18.3716 22.4616C18.6182 22.3116 18.7957 22.0691 18.865 21.7874L19.1628 20.5674C19.2318 20.2856 19.1869 19.9878 19.0379 19.7393C18.889 19.4909 18.6482 19.3121 18.3685 19.2424H18.3487Z" fill="#FFE500"/>
<path d="M18.3482 19.2424L17.405 19.0024C17.3319 18.9845 17.2561 18.9814 17.1819 18.9931C17.1077 19.0048 17.0364 19.0311 16.9723 19.0706C16.9082 19.1101 16.8525 19.1619 16.8083 19.2232C16.7641 19.2844 16.7324 19.3538 16.7149 19.4274C16.6875 19.5238 16.6875 19.626 16.7149 19.7224C16.7831 19.65 16.8689 19.5966 16.9638 19.5677C17.0587 19.5388 17.1594 19.5352 17.256 19.5574L18.2191 19.7974C18.3574 19.8314 18.4877 19.8925 18.6025 19.9773C18.7173 20.062 18.8144 20.1688 18.8882 20.2914C18.962 20.414 19.011 20.5501 19.0325 20.6918C19.054 20.8336 19.0475 20.9782 19.0134 21.1174L19.1475 20.5674C19.1815 20.4275 19.1879 20.2823 19.1661 20.1399C19.1444 19.9976 19.095 19.861 19.0207 19.7379C18.9465 19.6148 18.8489 19.5077 18.7335 19.4227C18.6181 19.3377 18.4871 19.2764 18.3482 19.2424V19.2424Z" fill="#FFF48C"/>
<path d="M18.3487 19.2424L17.4054 19.0024C17.2603 18.9656 17.1066 18.9877 16.9774 19.0639C16.8483 19.1401 16.754 19.2644 16.715 19.41C16.6759 19.5555 16.6952 19.7107 16.7686 19.8421C16.842 19.9734 16.9638 20.0705 17.1076 20.1124C16.9652 20.0926 16.8207 20.1276 16.7029 20.2104C16.585 20.2932 16.5025 20.4177 16.4718 20.5591C16.4411 20.7005 16.4645 20.8483 16.5372 20.9731C16.61 21.0979 16.7268 21.1905 16.8643 21.2324C16.7913 21.2143 16.7155 21.2109 16.6411 21.2224C16.5668 21.2338 16.4955 21.2599 16.4312 21.2992C16.3669 21.3384 16.3109 21.39 16.2664 21.451C16.2219 21.5121 16.1897 21.5813 16.1718 21.6549C16.1539 21.7284 16.1505 21.8048 16.1619 21.8796C16.1732 21.9545 16.1992 22.0264 16.2381 22.0911C16.2771 22.1559 16.3283 22.2123 16.3889 22.2571C16.4495 22.302 16.5183 22.3343 16.5913 22.3524L17.5494 22.5874C17.8292 22.6568 18.1249 22.6116 18.3716 22.4616C18.6182 22.3116 18.7957 22.0691 18.865 21.7874L19.1628 20.5674C19.2318 20.2856 19.1869 19.9878 19.0379 19.7393C18.889 19.4909 18.6482 19.3121 18.3685 19.2424H18.3487Z" stroke="#45413C" stroke-width="0.5" stroke-linecap="round" stroke-linejoin="round"/>
<path d="M15.4542 9.68739C14.8287 9.50913 14.2508 9.19206 13.7629 8.75946C13.2749 8.32685 12.8894 7.78968 12.6345 7.18739L12.3267 6.44739C11.1299 8.07218 9.36371 9.17703 7.38714 9.53739L6.45384 9.70739C6.32989 9.69812 6.20538 9.7147 6.08808 9.7561C5.97079 9.79751 5.86323 9.86284 5.77215 9.94801C5.68107 10.0332 5.60841 10.1364 5.55873 10.2511C5.50904 10.3659 5.4834 10.4897 5.4834 10.6149C5.4834 10.7401 5.50904 10.8639 5.55873 10.9787C5.60841 11.0934 5.68107 11.1966 5.77215 11.2818C5.86323 11.3669 5.97079 11.4323 6.08808 11.4737C6.20538 11.5151 6.32989 11.5317 6.45384 11.5224H6.50845C6.66439 12.5978 7.19941 13.5807 8.01569 14.2915C8.83197 15.0023 9.87498 15.3935 10.954 15.3935C12.0331 15.3935 13.0761 15.0023 13.8924 14.2915C14.7087 13.5807 15.2437 12.5978 15.3996 11.5224H15.4542C15.6817 11.5054 15.8943 11.4024 16.0494 11.2341C16.2046 11.0657 16.2908 10.8446 16.2908 10.6149C16.2908 10.3852 16.2046 10.164 16.0494 9.99571C15.8943 9.8274 15.6817 9.7244 15.4542 9.70739V9.68739Z" fill="#FFE500" stroke="#45413C" stroke-width="0.5" stroke-linecap="round" stroke-linejoin="round"/>
<path d="M8.25586 10.4074C8.25586 10.4835 8.27828 10.558 8.32028 10.6213C8.36228 10.6846 8.42198 10.734 8.49183 10.7631C8.56168 10.7922 8.63854 10.7999 8.71269 10.785C8.78684 10.7701 8.85495 10.7335 8.90841 10.6796C8.96187 10.6258 8.99828 10.5572 9.01303 10.4825C9.02778 10.4078 9.02021 10.3304 8.99128 10.2601C8.96234 10.1897 8.91335 10.1296 8.85049 10.0873C8.78763 10.045 8.71372 10.0224 8.63812 10.0224C8.53674 10.0224 8.43951 10.063 8.36782 10.1352C8.29613 10.2074 8.25586 10.3053 8.25586 10.4074Z" fill="#45413C" stroke="#45413C" stroke-width="0.5" stroke-linecap="round" stroke-linejoin="round"/>
<path d="M13.6523 10.4074C13.6533 10.4847 13.6315 10.5606 13.5895 10.6254C13.5476 10.6902 13.4874 10.741 13.4168 10.7713C13.3461 10.8015 13.2681 10.81 13.1927 10.7955C13.1172 10.781 13.0478 10.7443 12.9931 10.6899C12.9385 10.6356 12.9011 10.5661 12.8857 10.4903C12.8704 10.4146 12.8778 10.3359 12.9069 10.2643C12.9361 10.1928 12.9857 10.1316 13.0495 10.0885C13.1133 10.0454 13.1883 10.0224 13.2651 10.0224C13.367 10.0224 13.4647 10.0628 13.5372 10.1349C13.6097 10.2069 13.651 10.3048 13.6523 10.4074V10.4074Z" fill="#45413C" stroke="#45413C" stroke-width="0.5" stroke-linecap="round" stroke-linejoin="round"/>
<path d="M9.54682 12.7574C9.515 12.757 9.48349 12.7636 9.45438 12.7765C9.42527 12.7894 9.39924 12.8085 9.37803 12.8324C9.35797 12.8574 9.34322 12.8862 9.33468 12.9172C9.32615 12.9481 9.324 12.9805 9.32838 13.0124C9.39242 13.4001 9.59096 13.7523 9.88868 14.0064C10.1864 14.2605 10.564 14.4 10.9542 14.4C11.3445 14.4 11.722 14.2605 12.0198 14.0064C12.3175 13.7523 12.516 13.4001 12.58 13.0124C12.5847 12.9802 12.5823 12.9473 12.5728 12.9162C12.5634 12.8851 12.5472 12.8564 12.5254 12.8324C12.5057 12.8081 12.4806 12.7886 12.4522 12.7756C12.4238 12.7626 12.3928 12.7564 12.3616 12.7574H9.54682Z" fill="#FF6242"/>
<path d="M10.9512 13.4474C10.503 13.4297 10.0621 13.5654 9.7002 13.8324C9.85577 14.0093 10.0468 14.1509 10.2608 14.2478C10.4747 14.3448 10.7067 14.395 10.9413 14.395C11.1759 14.395 11.4078 14.3448 11.6218 14.2478C11.8357 14.1509 12.0268 14.0093 12.1824 13.8324C11.8259 13.5697 11.3927 13.4343 10.9512 13.4474Z" fill="#FFA694"/>
<path d="M9.54682 12.7574C9.515 12.757 9.48349 12.7636 9.45438 12.7765C9.42527 12.7894 9.39924 12.8085 9.37803 12.8324C9.35797 12.8574 9.34322 12.8862 9.33468 12.9172C9.32615 12.9481 9.324 12.9805 9.32838 13.0124C9.39242 13.4001 9.59096 13.7523 9.88868 14.0064C10.1864 14.2605 10.564 14.4 10.9542 14.4C11.3445 14.4 11.722 14.2605 12.0198 14.0064C12.3175 13.7523 12.516 13.4001 12.58 13.0124C12.5847 12.9802 12.5823 12.9473 12.5728 12.9162C12.5634 12.8851 12.5472 12.8564 12.5254 12.8324C12.5057 12.8081 12.4806 12.7886 12.4522 12.7756C12.4238 12.7626 12.3928 12.7564 12.3616 12.7574H9.54682Z" stroke="#45413C" stroke-width="0.5" stroke-linecap="round" stroke-linejoin="round"/>
<path d="M7.50586 12.0524C7.50586 12.1319 7.55816 12.2083 7.65126 12.2645C7.74436 12.3208 7.87063 12.3524 8.0023 12.3524C8.13396 12.3524 8.26023 12.3208 8.35333 12.2645C8.44643 12.2083 8.49873 12.1319 8.49873 12.0524C8.49873 11.9728 8.44643 11.8965 8.35333 11.8402C8.26023 11.784 8.13396 11.7524 8.0023 11.7524C7.87063 11.7524 7.74436 11.784 7.65126 11.8402C7.55816 11.8965 7.50586 11.9728 7.50586 12.0524Z" fill="#FFAA54"/>
<path d="M13.4033 12.0524C13.4033 12.1319 13.4556 12.2083 13.5487 12.2645C13.6418 12.3208 13.7681 12.3524 13.8998 12.3524C14.0314 12.3524 14.1577 12.3208 14.2508 12.2645C14.3439 12.2083 14.3962 12.1319 14.3962 12.0524C14.3962 11.9728 14.3439 11.8965 14.2508 11.8402C14.1577 11.784 14.0314 11.7524 13.8998 11.7524C13.7681 11.7524 13.6418 11.784 13.5487 11.8402C13.4556 11.8965 13.4033 11.9728 13.4033 12.0524Z" fill="#FFAA54"/>
<path d="M5.59473 7.94739C5.59473 7.41739 8.00245 6.98739 10.9662 6.98739C13.9299 6.98739 16.3376 7.41739 16.3376 7.94739L16.1639 6.02739C16.1639 5.50239 13.8405 5.07239 10.9662 5.07239C8.09181 5.07239 5.76848 5.50239 5.76848 6.02739L5.59473 7.94739Z" fill="#8CA4B8"/>
<path d="M5.60039 7.91736C5.59805 7.92722 5.59805 7.9375 5.60039 7.94736V7.91736Z" fill="#627B8C"/>
<path d="M10.9514 5.07241C8.08204 5.07241 5.75375 5.50241 5.75375 6.02741L5.58496 7.91741C5.66936 7.41741 8.03736 6.98741 10.9514 6.98741H11.7855C12.8073 6.59349 13.7594 6.03635 14.6052 5.33741C13.3969 5.14555 12.1746 5.05691 10.9514 5.07241V5.07241Z" fill="#627B8C"/>
<path d="M5.59473 7.94739C5.59473 7.41739 8.00245 6.98739 10.9662 6.98739C13.9299 6.98739 16.3376 7.41739 16.3376 7.94739L16.1639 6.02739C16.1639 5.50239 13.8405 5.07239 10.9662 5.07239C8.09181 5.07239 5.76848 5.50239 5.76848 6.02739L5.59473 7.94739Z" stroke="#45413C" stroke-width="0.5" stroke-linecap="round" stroke-linejoin="round"/>
<path d="M16.8387 3.59239C15.7316 1.91739 12.9367 1.47739 10.9509 1.63239C8.64395 1.88741 6.43106 2.6949 4.49727 3.98739C3.58879 4.63739 3.27603 5.28739 3.53914 5.68239C4.09515 6.68239 7.04895 6.91739 11.5715 5.07739C14.148 5.13239 16.1486 5.53739 16.1486 6.02739C16.1635 6.02739 17.8117 5.07239 16.8387 3.59239Z" fill="#8CA4B8"/>
<path d="M3.75261 5.94739C3.96403 5.67011 4.21496 5.42581 4.49727 5.22239C6.43001 3.9278 8.64342 3.12011 10.9509 2.86739C12.9367 2.71239 15.7167 3.15239 16.8238 4.82739C16.886 4.92302 16.9407 5.02331 16.9876 5.12739C17.1043 4.8814 17.1508 4.60756 17.1219 4.33649C17.093 4.06542 16.9898 3.80779 16.8238 3.59239C15.7316 1.91739 12.9367 1.47739 10.9509 1.63239C8.64395 1.88741 6.43106 2.6949 4.49727 3.98739C3.58879 4.63739 3.27603 5.28739 3.53914 5.68239C3.5947 5.78239 3.66691 5.87203 3.75261 5.94739V5.94739Z" fill="#ADC4D9"/>
<path d="M16.8387 3.59239C15.7316 1.91739 12.9367 1.47739 10.9509 1.63239C8.64395 1.88741 6.43106 2.6949 4.49727 3.98739C3.58879 4.63739 3.27603 5.28739 3.53914 5.68239C4.09515 6.68239 7.04895 6.91739 11.5715 5.07739C14.148 5.13239 16.1486 5.53739 16.1486 6.02739C16.1635 6.02739 17.8117 5.07239 16.8387 3.59239Z" stroke="#45413C" stroke-width="0.5" stroke-linecap="round" stroke-linejoin="round"/>
<path d="M11.5869 5.07739C12.2869 4.79239 13.0216 4.46239 13.7911 4.07739" stroke="#45413C" stroke-width="0.5" stroke-linecap="round" stroke-linejoin="round"/>
<path d="M10.1133 1.72605C10.1285 1.86977 10.2332 1.9979 10.4041 2.08226C10.5751 2.16663 10.7983 2.2003 11.0248 2.17588C11.2513 2.15146 11.4624 2.07095 11.6118 1.95206C11.7611 1.83317 11.8364 1.68563 11.8212 1.54191C11.8059 1.39819 11.7013 1.27005 11.5303 1.18569C11.3594 1.10133 11.1361 1.06766 10.9096 1.09207C10.6831 1.11649 10.472 1.197 10.3227 1.3159C10.1733 1.43479 10.098 1.58233 10.1133 1.72605V1.72605Z" fill="#627B8C" stroke="#45413C" stroke-width="0.5" stroke-linecap="round" stroke-linejoin="round"/>
</svg>
