<svg width="23" height="25" viewBox="0 0 23 25" fill="none" xmlns="http://www.w3.org/2000/svg">
<g clip-path="url(#clip0_1578_2917)" filter="url(#filter0_d_1578_2917)">
<path d="M7.07775 11.9999L15.1068 4.39344L13.9874 3.33294L5.95833 10.9394V11.9999H7.07775ZM7.73404 13.4999H4.375V10.3177L13.4277 1.74144C13.5762 1.60084 13.7775 1.52185 13.9874 1.52185C14.1973 1.52185 14.3987 1.60084 14.5471 1.74144L16.7867 3.86319C16.9352 4.00384 17.0185 4.19457 17.0185 4.39344C17.0185 4.59231 16.9352 4.78304 16.7867 4.92369L7.73404 13.4999V13.4999ZM4.375 14.9999H18.625V16.4999H4.375V14.9999Z" fill="black"/>
</g>
<defs>
<filter id="filter0_d_1578_2917" x="-2" y="0" width="27" height="26" filterUnits="userSpaceOnUse" color-interpolation-filters="sRGB">
<feFlood flood-opacity="0" result="BackgroundImageFix"/>
<feColorMatrix in="SourceAlpha" type="matrix" values="0 0 0 0 0 0 0 0 0 0 0 0 0 0 0 0 0 0 127 0" result="hardAlpha"/>
<feOffset dy="4"/>
<feGaussianBlur stdDeviation="2"/>
<feComposite in2="hardAlpha" operator="out"/>
<feColorMatrix type="matrix" values="0 0 0 0 0 0 0 0 0 0 0 0 0 0 0 0 0 0 0.25 0"/>
<feBlend mode="normal" in2="BackgroundImageFix" result="effect1_dropShadow_1578_2917"/>
<feBlend mode="normal" in="SourceGraphic" in2="effect1_dropShadow_1578_2917" result="shape"/>
</filter>
<clipPath id="clip0_1578_2917">
<rect width="19" height="18" fill="white" transform="translate(2)"/>
</clipPath>
</defs>
</svg>
